<?xml version="1.0" encoding="utf-8"?>
<!-- Generator: Adobe Illustrator 24.0.0, SVG Export Plug-In . SVG Version: 6.00 Build 0)  -->
<svg version="1.1" id="Layer_1" xmlns="http://www.w3.org/2000/svg" xmlns:xlink="http://www.w3.org/1999/xlink" x="0px" y="0px"
	 viewBox="0 0 500 78.8" style="enable-background:new 0 0 500 78.8;" xml:space="preserve">
<style type="text/css">
	.st0{fill:#070707;}
	.st1{fill:#070706;}
	.st2{fill:#0A0A0A;}
</style>
<g>
	<path class="st0" d="M59.1,0.9c20.6,0.3,38.5,7.2,53.1,22c3.9,4,6.4,8.5,1.9,13c-4.4,4.4-8.8,2.4-13-1.6
		c-25.9-24.5-59-24.1-84.7,0.9c-4.1,4-8.2,7.1-13.6,2.6c-4.1-3.4-2.6-8.8,2.8-14.1C20.4,9.3,37.9,0.8,59.1,0.9z"/>
	<path class="st1" d="M95.7,52.1c0,6.5-6.4,10.3-12.1,7.1c-1.7-1-3.1-2.5-4.5-3.9c-12.6-11.7-27.7-11.6-40,0.2
		c-1.8,1.7-3.6,3.6-5.7,4.8c-3.6,2.1-7.3,1.6-10.2-1.5c-2.6-2.7-3.8-6.3-1.5-9.6c8.8-12.5,20.9-20.2,36.4-20.5
		c14.4-0.3,26.9,4.5,35.5,17C95.4,48.5,95.7,50,95.7,52.1z"/>
	<path class="st2" d="M58.3,59.8c3-0.1,5.9,0.1,8.7,1.4c2.7,1.3,4.2,3.3,4.7,6.2c0.8,5.7-2.8,9.4-10.1,10.2
		c-9.9,1.2-16.1-1.8-16.7-8c-0.6-6.1,3.3-9.5,11.1-9.8C56.8,59.8,57.5,59.8,58.3,59.8z"/>
</g>
<g>
	<path d="M165.1,25.7h-14.6v11h13v5h-13v11.5h14.6v5h-20.8V20.7h20.8V25.7z"/>
	<path d="M201.5,25.6L184,53h17.5v5.4h-24.8v-4.8l17.4-27.4h-17.4v-5.4h24.8V25.6z"/>
	<path d="M230.7,20.1c8.2,0,14.6,4.1,17.5,11.4h-5.9c-2.1-4.5-6.1-7.1-11.6-7.1c-7.9,0-13.8,5.7-13.8,15c0,9.2,5.9,14.9,13.8,14.9
		c5.5,0,9.5-2.5,11.6-7h5.9c-2.8,7.2-9.3,11.3-17.5,11.3c-10.5,0-18.8-7.9-18.8-19.2S220.2,20.1,230.7,20.1z"/>
	<path d="M277.9,58.7c-10.6,0-18.9-7.9-18.9-19.2s8.3-19.2,18.9-19.2c10.6,0,18.9,7.9,18.9,19.2S288.6,58.7,277.9,58.7z M277.9,54.4
		c7.9,0,13.9-5.8,13.9-15c0-9.2-5.9-15-13.9-15c-7.9,0-13.9,5.7-13.9,15C264,48.6,270,54.4,277.9,54.4z"/>
	<path d="M338.3,20.6v37.7h-4.9l-19.8-30v30h-4.9V20.6h4.9l19.8,29.9V20.6H338.3z"/>
	<path d="M381.7,20.6v37.7h-4.9l-19.8-30v30h-4.9V20.6h4.9l19.8,29.9V20.6H381.7z"/>
	<path d="M415.8,24.6h-15.3v12.6h13.7v4.1h-13.7v13h15.3v4.1h-20.3V20.6h20.3V24.6z"/>
	<path d="M445.6,20.1c8.2,0,14.6,4.1,17.5,11.4h-5.9c-2.1-4.5-6.1-7.1-11.6-7.1c-7.9,0-13.8,5.7-13.8,15c0,9.2,5.9,14.9,13.8,14.9
		c5.5,0,9.5-2.5,11.6-7h5.9c-2.8,7.2-9.3,11.3-17.5,11.3c-10.5,0-18.8-7.9-18.8-19.2S435.1,20.1,445.6,20.1z"/>
	<path d="M473.4,20.6H499v4h-10.3v33.7h-4.9V24.6h-10.3V20.6z"/>
</g>
</svg>
