<?xml version="1.0" encoding="utf-8"?>
<!-- Generator: Adobe Illustrator 24.0.0, SVG Export Plug-In . SVG Version: 6.00 Build 0)  -->
<svg version="1.1" id="Layer_1" xmlns="http://www.w3.org/2000/svg" xmlns:xlink="http://www.w3.org/1999/xlink" x="0px" y="0px"
	 viewBox="0 0 500 500" style="enable-background:new 0 0 500 500;" xml:space="preserve">
<style type="text/css">
	.st0{fill:url(#SVGID_1_);}
	.st1{fill:#FFFFFF;}
</style>
<path d="M-1183.1,393.3c-5-13.5-13.5-25.5-24.7-34.8c15.2-18.1,24.4-41.4,24.4-66.9c0-57.4-46.7-104.2-104.2-104.2
	s-104.2,46.7-104.2,104.2c0,25.5,9.2,48.9,24.5,67c-11,9.3-19.4,21.4-24.3,35.1c-25.9-26.3-41.9-62.4-41.9-102.2
	c0-80.4,65.4-145.8,145.8-145.8s145.8,65.4,145.8,145.8C-1141.7,331.1-1157.5,367-1183.1,393.3L-1183.1,393.3z M-1287.5,41.7
	c-137.9,0-250,112.1-250,250c0,106.9,67.5,198.4,162.1,234l-11.3-50.9c-65-35.3-109.1-104.2-109.1-183.2
	c0-114.9,93.5-208.3,208.3-208.3s208.3,93.5,208.3,208.3c0,78.7-43.9,147.3-108.4,182.8l-10.7,50.8c93.9-36,160.8-127.1,160.8-233.5
	C-1037.5,153.8-1149.7,41.7-1287.5,41.7z M-1220.3,427.8l-24.1,113.9h-84.8l-24.9-112.3c-3.8-20.3,7.6-39.8,26.5-45.9
	c17.3-5.6,30.8-8.5,40.1-8.5c9.4,0,23,2.9,40.4,8.6C-1228.4,389.7-1216.9,408.7-1220.3,427.8z M-1287.5,333.3
	c23,0,41.7-18.6,41.7-41.7c0-23-18.6-41.7-41.7-41.7c-23,0-41.7,18.6-41.7,41.7C-1329.2,314.7-1310.5,333.3-1287.5,333.3z"/>
<linearGradient id="SVGID_1_" gradientUnits="userSpaceOnUse" x1="248.8738" y1="500.7587" x2="251.1262" y2="-0.7587">
	<stop  offset="0" style="stop-color:#1D76F2"/>
	<stop  offset="1" style="stop-color:#1AC2FB"/>
</linearGradient>
<path class="st0" d="M419.9,500H80.1C36.1,500,0,463.9,0,419.9V80.1C0,36.1,36.1,0,80.1,0h339.8C463.9,0,500,36.1,500,80.1v339.8
	C500,463.9,463.9,500,419.9,500z"/>
<path class="st1" d="M163.1,363.9L163.1,363.9l-16.8,29.2c-6.2,10.7-19.8,14.3-30.5,8.2c-10.7-6.2-14.3-19.8-8.2-30.5l12.4-21.5
	l1.2-2.1c2.1-3.1,7.4-8.3,17.9-7.4c0,0,24.7,2.7,26.5,15.5C165.7,355.5,165.9,359.7,163.1,363.9L163.1,363.9z M402.4,289.3h-52.6
	c-3.6-0.2-5.1-1.5-5.8-2.3v-0.1l-56.3-97.5h-0.1l-3.4-4.8c-5.5-8.5-14.3,13.2-14.3,13.2c-10.5,24.1,1.5,51.5,5.7,59.8l78.2,135.5
	c6.2,10.7,19.8,14.3,30.5,8.2c10.7-6.2,14.3-19.8,8.2-30.5l-19.7-33.9c-0.4-0.8-1-3,3-3.1h26.6c12.3,0,22.3-10,22.3-22.3
	S414.7,289.3,402.4,289.3L402.4,289.3z M300.2,319.6c0,0,2.8,14.3-8.1,14.3h-10.9l0,0H97.7c-12.3,0-22.3-10-22.3-22.3
	s10-22.3,22.3-22.3h50c8.1-0.5,10-5.1,10-5.1l0,0l65.3-113l0,0c1.2-2.2,0.2-4.2,0-4.6l-21.6-37.3c-6.2-10.7-2.5-24.3,8.2-30.5
	s24.3-2.5,30.5,8.2l10,17.3l10-17.3c6.2-10.7,19.8-14.3,30.5-8.2c10.7,6.2,14.3,19.8,8.2,30.5l-90.8,157.3c-0.4,1-0.5,2.5,2.4,2.7
	h54.1v0.5C264.5,289.8,295.9,290.3,300.2,319.6z"/>
</svg>
