<?xml version="1.0" encoding="utf-8"?>
<!-- Generator: Adobe Illustrator 24.0.0, SVG Export Plug-In . SVG Version: 6.00 Build 0)  -->
<svg version="1.1" id="Layer_1" xmlns="http://www.w3.org/2000/svg" xmlns:xlink="http://www.w3.org/1999/xlink" x="0px" y="0px"
	 viewBox="0 0 500 500" style="enable-background:new 0 0 500 500;" xml:space="preserve">
<style type="text/css">
	.st0{fill:#EDEDED;}
	.st1{fill:#999999;}
</style>
<path d="M-1183.1,393.3c-5-13.5-13.5-25.5-24.7-34.8c15.2-18.1,24.4-41.4,24.4-66.9c0-57.4-46.7-104.2-104.2-104.2
	s-104.2,46.7-104.2,104.2c0,25.5,9.2,48.9,24.5,67c-11,9.3-19.4,21.4-24.3,35.1c-25.9-26.3-41.9-62.4-41.9-102.2
	c0-80.4,65.4-145.8,145.8-145.8s145.8,65.4,145.8,145.8C-1141.7,331.1-1157.5,367-1183.1,393.3L-1183.1,393.3z M-1287.5,41.7
	c-137.9,0-250,112.1-250,250c0,106.9,67.5,198.4,162.1,234l-11.3-50.9c-65-35.3-109.1-104.2-109.1-183.2
	c0-114.9,93.5-208.3,208.3-208.3s208.3,93.5,208.3,208.3c0,78.7-43.9,147.3-108.4,182.8l-10.7,50.8c93.9-36,160.8-127.1,160.8-233.5
	C-1037.5,153.8-1149.7,41.7-1287.5,41.7z M-1220.3,427.8l-24.1,113.9h-84.8l-24.9-112.3c-3.8-20.3,7.6-39.8,26.5-45.9
	c17.3-5.6,30.8-8.5,40.1-8.5c9.4,0,23,2.9,40.4,8.6C-1228.4,389.7-1216.9,408.7-1220.3,427.8z M-1287.5,333.3
	c23,0,41.7-18.6,41.7-41.7c0-23-18.6-41.7-41.7-41.7c-23,0-41.7,18.6-41.7,41.7C-1329.2,314.7-1310.5,333.3-1287.5,333.3z"/>
<path class="st0" d="M419.9,500H80.1C36.1,500,0,463.9,0,419.9V80.1C0,36.1,36.1,0,80.1,0h339.8c44,0,80.1,36.1,80.1,80.1v339.8
	C500,463.9,463.9,500,419.9,500z"/>
<path class="st1" d="M328,385h-41.7v-14l41.9,0v14L328,385z M275.9,385h-41.7v-14h41.7V385z M223.8,385h-41.7v-14h41.7V385z
	 M171.6,385c-16-0.1-31.3-7-42-19l10.4-9.4c8.1,9,19.7,14.3,31.7,14.3L171.6,385z M340,383.7l-3-13.7c11.8-2.5,22-10,28.1-20.5
	l12.1,7C369.2,370.4,355.6,380.3,340,383.7z M122.6,356.4c-5-8.6-7.6-18.5-7.6-28.4v-15.6h14V328c0,7.5,2,14.9,5.8,21.4L122.6,356.4
	z M382.2,345.7l-13.3-4.4c1.4-4.3,2.1-8.8,2.1-13.3v-25.9h14V328C385,334,384,340,382.2,345.7z M129,302h-14v-41.7h14V302z
	 M385,291.7h-14V250h14V291.7z M129,249.9h-14v-41.7h14V249.9z M385,239.6h-14v-41.7h14V239.6z M129,197.8h-14V172
	c0-6.1,1-12.1,2.9-17.8l13.3,4.4c-1.4,4.3-2.2,8.8-2.2,13.4V197.8z M385,187.5h-14V172c0-7.5-2-15-5.8-21.5l12.1-7
	c5,8.7,7.7,18.5,7.7,28.5V187.5z M134.8,150.4l-12.1-7.1c8.1-13.9,21.7-23.8,37.3-27.1l2.9,13.7C151.3,132.5,141,139.9,134.8,150.4z
	 M359.9,143.3c-8.1-9-19.7-14.2-31.7-14.3l0.1-14c16,0.1,31.3,7,42.1,18.9L359.9,143.3z M317.8,129h-41.7v-14h41.7V129z M265.7,129
	H224v-14h41.7V129z M213.6,129H172l-0.1-14h41.7V129z"/>
<g>
	<path class="st1" d="M278.7,237.5l-35,35.3l-26.4-18.3l-35,35v6c0,6.9,5.7,12.6,12.6,12.6h114.9c6.9,0,12.6-5.7,12.6-12.6V281
		L278.7,237.5z"/>
	<circle class="st1" cx="216.9" cy="203.1" r="17.9"/>
</g>
</svg>
