<svg xmlns="http://www.w3.org/2000/svg" xmlns:xlink="http://www.w3.org/1999/xlink" version="1.1" width="500" height="500" viewBox="0 0 500 500" xml:space="preserve">
<desc>Created with Fabric.js 5.2.4</desc>
<defs>
</defs>
<rect x="0" y="0" width="100%" height="100%" fill="transparent"></rect>
<g transform="matrix(Infinity NaN NaN Infinity 0 0)" id="0f209e0d-9e7d-44fb-bac4-bdadc7445bc3"  >
</g>
<g transform="matrix(1 0 0 1 250 250)" id="008ce42e-de94-4a01-aad0-cf34f2723524"  >
<rect style="stroke: none; stroke-width: 1; stroke-dasharray: none; stroke-linecap: butt; stroke-dashoffset: 0; stroke-linejoin: miter; stroke-miterlimit: 4; fill: rgb(255,255,255); fill-rule: nonzero; opacity: 1; visibility: hidden;" vector-effect="non-scaling-stroke"  x="-250" y="-250" rx="0" ry="0" width="500" height="500" />
</g>
<g transform="matrix(0.99 0 0 0.99 249.51 250.49)"  >
<path style="stroke: none; stroke-width: 1; stroke-dasharray: none; stroke-linecap: butt; stroke-dashoffset: 0; stroke-linejoin: miter; stroke-miterlimit: 4; fill: rgb(237,237,237); fill-rule: nonzero; opacity: 1;" vector-effect="non-scaling-stroke"  transform=" translate(-250, -250)" d="M 419.9 500 L 80.1 500 C 36.1 500 0 463.9 0 419.9 L 0 80.1 C 0 36.1 36.1 0 80.1 0 L 419.9 0 C 463.9 0 500 36.1 500 80.1 L 500 419.9 C 500 463.9 463.9 500 419.9 500 z" stroke-linecap="round" />
</g>
<g transform="matrix(13.11 0 0 13.11 249.51 250.49)"  >
<g style="" vector-effect="non-scaling-stroke"   >
		<g transform="matrix(1 0 0 1 0 -2.08)"  >
<path style="stroke: none; stroke-width: 1; stroke-dasharray: none; stroke-linecap: butt; stroke-dashoffset: 0; stroke-linejoin: miter; stroke-miterlimit: 4; fill: rgb(143,143,143); fill-rule: nonzero; opacity: 1;" vector-effect="non-scaling-stroke"  transform=" translate(-10, -7.92)" d="M 10.8275 2.1486 L 10.8333 15.0134 C 10.8333 15.2344 10.7455 15.4464 10.5892 15.6027 C 10.4329 15.7589 10.221 15.8467 9.99995 15.8467 C 9.77894 15.8467 9.56698 15.7589 9.4107 15.6027 C 9.25442 15.4464 9.16662 15.2344 9.16662 15.0134 L 9.16079 2.16277 L 6.73412 4.59023 C 6.57785 4.74646 6.36593 4.83422 6.14496 4.83422 C 5.92399 4.83422 5.71206 4.74646 5.55579 4.59023 C 5.39956 4.43396 5.3118 4.22204 5.3118 4.00107 C 5.3118 3.78011 5.39956 3.56819 5.55579 3.41192 L 8.23162 0.732789 C 8.46379 0.500476 8.73946 0.316187 9.04288 0.190452 C 9.34629 0.0647166 9.67152 0 9.99995 0 C 10.3284 0 10.6536 0.0647166 10.957 0.190452 C 11.2605 0.316187 11.5361 0.500476 11.7683 0.732789 L 14.4441 3.40942 C 14.6003 3.56569 14.6881 3.77761 14.6881 3.99857 C 14.6881 4.21954 14.6003 4.43146 14.4441 4.58773 C 14.2878 4.74396 14.0759 4.83172 13.855 4.83172 C 13.634 4.83172 13.4221 4.74396 13.2658 4.58773 L 10.8275 2.1486 Z" stroke-linecap="round" />
</g>
		<g transform="matrix(1 0 0 1 0 6.67)"  >
<path style="stroke: none; stroke-width: 1; stroke-dasharray: none; stroke-linecap: butt; stroke-dashoffset: 0; stroke-linejoin: miter; stroke-miterlimit: 4; fill: rgb(143,143,143); fill-rule: nonzero; opacity: 1;" vector-effect="non-scaling-stroke"  transform=" translate(-10, -16.67)" d="M 1.66667 14.1668 L 1.66667 17.5001 C 1.66667 17.7211 1.75446 17.9331 1.91074 18.0893 C 2.06702 18.2456 2.27899 18.3334 2.5 18.3334 L 17.5 18.3334 C 17.721 18.3334 17.933 18.2456 18.0893 18.0893 C 18.2455 17.9331 18.3333 17.7211 18.3333 17.5001 L 18.3333 14.1668 C 18.3333 13.9458 18.4211 13.7338 18.5774 13.5776 C 18.7337 13.4213 18.9457 13.3335 19.1667 13.3335 C 19.3877 13.3335 19.5996 13.4213 19.7559 13.5776 C 19.9122 13.7338 20 13.9458 20 14.1668 L 20 17.5001 C 20 18.1631 19.7366 18.799 19.2678 19.2678 C 18.7989 19.7367 18.163 20.0001 17.5 20.0001 L 2.5 20.0001 C 1.83696 20.0001 1.20107 19.7367 0.732233 19.2678 C 0.263391 18.799 0 18.1631 0 17.5001 L 0 14.1668 C 0 13.9458 0.0877972 13.7338 0.244078 13.5776 C 0.400358 13.4213 0.61232 13.3335 0.833334 13.3335 C 1.05435 13.3335 1.26631 13.4213 1.42259 13.5776 C 1.57887 13.7338 1.66667 13.9458 1.66667 14.1668 Z" stroke-linecap="round" />
</g>
</g>
</g>
</svg>