<?xml version="1.0" encoding="utf-8"?>
<!-- Generator: Adobe Illustrator 24.0.0, SVG Export Plug-In . SVG Version: 6.00 Build 0)  -->
<svg version="1.1" id="Layer_1" xmlns="http://www.w3.org/2000/svg" xmlns:xlink="http://www.w3.org/1999/xlink" x="0px" y="0px"
	 viewBox="0 0 500 500" style="enable-background:new 0 0 500 500;" xml:space="preserve">
<style type="text/css">
	.st0{fill:#F44336;}
	.st1{fill:#FFFFFF;}
</style>
<path d="M-1183.1,393.3c-5-13.5-13.5-25.5-24.7-34.8c15.2-18.1,24.4-41.4,24.4-66.9c0-57.4-46.7-104.2-104.2-104.2
	s-104.2,46.7-104.2,104.2c0,25.5,9.2,48.9,24.5,67c-11,9.3-19.4,21.4-24.3,35.1c-25.9-26.3-41.9-62.4-41.9-102.2
	c0-80.4,65.4-145.8,145.8-145.8s145.8,65.4,145.8,145.8C-1141.7,331.1-1157.5,367-1183.1,393.3L-1183.1,393.3z M-1287.5,41.7
	c-137.9,0-250,112.1-250,250c0,106.9,67.5,198.4,162.1,234l-11.3-50.9c-65-35.3-109.1-104.2-109.1-183.2
	c0-114.9,93.5-208.3,208.3-208.3s208.3,93.5,208.3,208.3c0,78.7-43.9,147.3-108.4,182.8l-10.7,50.8c93.9-36,160.8-127.1,160.8-233.5
	C-1037.5,153.8-1149.7,41.7-1287.5,41.7z M-1220.3,427.8l-24.1,113.9h-84.8l-24.9-112.3c-3.8-20.3,7.6-39.8,26.5-45.9
	c17.3-5.6,30.8-8.5,40.1-8.5c9.4,0,23,2.9,40.4,8.6C-1228.4,389.7-1216.9,408.7-1220.3,427.8z M-1287.5,333.3
	c23,0,41.7-18.6,41.7-41.7c0-23-18.6-41.7-41.7-41.7c-23,0-41.7,18.6-41.7,41.7C-1329.2,314.7-1310.5,333.3-1287.5,333.3z"/>
<path class="st0" d="M419.9,500H80.1C36.1,500,0,463.9,0,419.9V80.1C0,36.1,36.1,0,80.1,0h339.8C463.9,0,500,36.1,500,80.1v339.8
	C500,463.9,463.9,500,419.9,500z"/>
<image style="overflow:visible;" width="225" height="225" xlink:href="F8A7BBBB.jpg"  transform="matrix(1 0 0 1 -684.75 -409.125)">
</image>
<path class="st1" d="M378,228.6v96c0,29.4-23.9,53.4-53.4,53.4H175.4c-29.4,0-53.4-23.9-53.4-53.4V207.4c0-29.4,23.9-53.4,53.4-53.4
	h85.4c5.9,0,10.6,4.8,10.6,10.6c0,5.8-4.8,10.6-10.6,10.6h-85.4c-12.3,0-22.8,6.9-28.3,16.9l80.3,80.3c12.5,12.5,32.8,12.5,45.2,0
	l40.8-40.8c4.1-4.1,10.9-4.1,15.1,0c4.1,4.1,4.1,10.9,0,15.1l-40.8,40.8c-10.3,10.4-24.1,15.6-37.7,15.6s-27.3-5.2-37.8-15.6
	l-68.8-68.9v105.9c0,17.6,14.4,32,32,32h149.4c17.6,0,32-14.4,32-32v-96.1c0-5.9,4.8-10.6,10.6-10.6S378,222.8,378,228.6z
	 M292.6,164.6c0-23.6,19.1-42.6,42.6-42.6s42.6,19.1,42.6,42.6s-19.1,42.6-42.6,42.6S292.6,188.3,292.6,164.6z M314,164.6
	c0,11.7,9.6,21.4,21.4,21.4c11.7,0,21.4-9.6,21.4-21.4c0-11.7-9.6-21.4-21.4-21.4C323.6,143.4,314,152.9,314,164.6z"/>
</svg>
