<?xml version="1.0" encoding="utf-8"?>
<!-- Generator: Adobe Illustrator 24.0.0, SVG Export Plug-In . SVG Version: 6.00 Build 0)  -->
<svg version="1.1" id="Layer_1" xmlns="http://www.w3.org/2000/svg" xmlns:xlink="http://www.w3.org/1999/xlink" x="0px" y="0px"
	 viewBox="0 0 500 500" style="enable-background:new 0 0 500 500;" xml:space="preserve">
<style type="text/css">
	.st0{fill:#1976D2;}
	.st1{fill:#FFFFFF;}
</style>
<path class="st0" d="M419.9,500H80.1C36.1,500,0,463.9,0,419.9V80.1C0,36.1,36.1,0,80.1,0h339.8C463.9,0,500,36.1,500,80.1v339.8
	C500,463.9,463.9,500,419.9,500z"/>
<path class="st1" d="M268.9,263c0,2.5,0,4.4,0,6.4c0,24.8,0,49.7,0,74.5c0,7.6-0.8,8.4-8.2,8.4c-9.3,0-18.7,0-28,0
	c-6.2,0-7.2-1-7.2-7.3c0-25,0-50,0-75c0-2,0-4,0-6.8c-3.9,0-7.5,0-11.1,0c-3.8,0-7.7,0-11.5,0c-7.6,0-8-0.4-8-7.9
	c0-9.2,0.1-18.3-0.1-27.5c-0.1-4.5,1.7-6.4,6.2-6.3c8,0.2,15.9,0,24.4,0c0-6.9-0.3-13.2,0.1-19.5c0.4-6.6,0.5-13.4,2.1-19.8
	c4.9-20,20.8-33,41.7-34.2c10.1-0.6,20.3-0.2,30.5-0.2c3.5,0,5.3,1.5,5.3,5.1c0,9.7,0,19.3,0,29c0,3.9-2,5.2-5.7,5.3
	c-7,0-14,0.1-21,0.5c-6.7,0.4-9.4,3.1-9.5,9.7c-0.2,7.6,0,15.3,0,23.7c8.9,0,17.5,0,26.1,0c8.6,0,9.1,0.5,9.1,9c0,5.7,0,11.3,0,17
	c-0.2,18.3,2.4,15.9-16.3,16.1C281.7,263,275.6,263,268.9,263z"/>
</svg>
