<?xml version="1.0" encoding="utf-8"?>
<!-- Generator: Adobe Illustrator 24.0.0, SVG Export Plug-In . SVG Version: 6.00 Build 0)  -->
<svg version="1.1" id="Layer_1" xmlns="http://www.w3.org/2000/svg" xmlns:xlink="http://www.w3.org/1999/xlink" x="0px" y="0px"
	 viewBox="0 0 500 500" style="enable-background:new 0 0 500 500;" xml:space="preserve">
<style type="text/css">
	.st0{fill:#EDEDED;}
	.st1{fill:url(#SVGID_1_);}
	.st2{fill:url(#SVGID_2_);}
	.st3{fill:url(#SVGID_3_);}
	.st4{fill:url(#SVGID_4_);}
</style>
<path d="M-1183.1,393.3c-5-13.5-13.5-25.5-24.7-34.8c15.2-18.1,24.4-41.4,24.4-66.9c0-57.4-46.7-104.2-104.2-104.2
	s-104.2,46.7-104.2,104.2c0,25.5,9.2,48.9,24.5,67c-11,9.3-19.4,21.4-24.3,35.1c-25.9-26.3-41.9-62.4-41.9-102.2
	c0-80.4,65.4-145.8,145.8-145.8s145.8,65.4,145.8,145.8C-1141.7,331.1-1157.5,367-1183.1,393.3L-1183.1,393.3z M-1287.5,41.7
	c-137.9,0-250,112.1-250,250c0,106.9,67.5,198.4,162.1,234l-11.3-50.9c-65-35.3-109.1-104.2-109.1-183.2
	c0-114.9,93.5-208.3,208.3-208.3s208.3,93.5,208.3,208.3c0,78.7-43.9,147.3-108.4,182.8l-10.7,50.8c93.9-36,160.8-127.1,160.8-233.5
	C-1037.5,153.8-1149.7,41.7-1287.5,41.7z M-1220.3,427.8l-24.1,113.9h-84.8l-24.9-112.3c-3.8-20.3,7.6-39.8,26.5-45.9
	c17.3-5.6,30.8-8.5,40.1-8.5c9.4,0,23,2.9,40.4,8.6C-1228.4,389.7-1216.9,408.7-1220.3,427.8z M-1287.5,333.3
	c23,0,41.7-18.6,41.7-41.7c0-23-18.6-41.7-41.7-41.7c-23,0-41.7,18.6-41.7,41.7C-1329.2,314.7-1310.5,333.3-1287.5,333.3z"/>
<path class="st0" d="M419.9,500H80.1C36.1,500,0,463.9,0,419.9V80.1C0,36.1,36.1,0,80.1,0h339.8C463.9,0,500,36.1,500,80.1v339.8
	C500,463.9,463.9,500,419.9,500z"/>
<g>
	
		<linearGradient id="SVGID_1_" gradientUnits="userSpaceOnUse" x1="-93.585" y1="-88.385" x2="-66.719" y2="-88.385" gradientTransform="matrix(5.3442 0 0 5.3442 645.2268 655.7789)">
		<stop  offset="0" style="stop-color:#63BE6B"/>
		<stop  offset="0.506" style="stop-color:#5BBC6A"/>
		<stop  offset="1" style="stop-color:#4AB96A"/>
	</linearGradient>
	<path class="st1" d="M288.7,200l-135.3-77.3c-1.7-1-3.8-0.9-5.5,0.1s-2.8,2.8-2.8,4.7c0,0,0.1,7.1,0.1,18.9l98.5,98.5L288.7,200z"
		/>
	
		<linearGradient id="SVGID_2_" gradientUnits="userSpaceOnUse" x1="-93.5562" y1="-76.9619" x2="-75.1087" y2="-76.9619" gradientTransform="matrix(5.3442 0 0 5.3442 645.2268 655.7789)">
		<stop  offset="0" style="stop-color:#3EC6F2"/>
		<stop  offset="1" style="stop-color:#45AFE3"/>
	</linearGradient>
	<path class="st2" d="M145.2,146.3c0.2,42.3,0.7,145.1,0.9,196.3l97.7-97.7L145.2,146.3z"/>
	
		<linearGradient id="SVGID_3_" gradientUnits="userSpaceOnUse" x1="-75.1278" y1="-76.3435" x2="-51.704" y2="-76.3435" gradientTransform="matrix(5.3442 0 0 5.3442 645.2268 655.7789)">
		<stop  offset="0" style="stop-color:#FAA51A"/>
		<stop  offset="0.387" style="stop-color:#FAB716"/>
		<stop  offset="0.741" style="stop-color:#FAC412"/>
		<stop  offset="1" style="stop-color:#FAC80F"/>
	</linearGradient>
	<path class="st3" d="M366.1,244.3L288.7,200l-44.9,44.8l50.7,50.7l71.7-41.8c1.7-1,2.8-2.8,2.8-4.7
		C368.9,247.1,367.8,245.3,366.1,244.3z"/>
	
		<linearGradient id="SVGID_4_" gradientUnits="userSpaceOnUse" x1="-93.4028" y1="-64.4242" x2="-65.6356" y2="-64.4242" gradientTransform="matrix(5.3442 0 0 5.3442 645.2268 655.7789)">
		<stop  offset="0" style="stop-color:#EC3B50"/>
		<stop  offset="1" style="stop-color:#E7515B"/>
	</linearGradient>
	<path class="st4" d="M146.1,342.6c0.1,18.2,0.2,29.9,0.2,29.9c0,2,1,3.8,2.8,4.7c1.7,1,3.8,1,5.5,0l140-81.7L243.8,245L146.1,342.6
		z"/>
</g>
</svg>
