<?xml version="1.0" encoding="utf-8"?>
<!-- Generator: Adobe Illustrator 24.0.0, SVG Export Plug-In . SVG Version: 6.00 Build 0)  -->
<svg version="1.1" id="Layer_1" xmlns="http://www.w3.org/2000/svg" xmlns:xlink="http://www.w3.org/1999/xlink" x="0px" y="0px"
	 viewBox="0 0 500 500" style="enable-background:new 0 0 500 500;" xml:space="preserve">
<style type="text/css">
	.st0{fill:url(#SVGID_1_);}
	.st1{fill:#FFFFFF;}
</style>
<path d="M-1183.1,393.3c-5-13.5-13.5-25.5-24.7-34.8c15.2-18.1,24.4-41.4,24.4-66.9c0-57.4-46.7-104.2-104.2-104.2
	s-104.2,46.7-104.2,104.2c0,25.5,9.2,48.9,24.5,67c-11,9.3-19.4,21.4-24.3,35.1c-25.9-26.3-41.9-62.4-41.9-102.2
	c0-80.4,65.4-145.8,145.8-145.8s145.8,65.4,145.8,145.8C-1141.7,331.1-1157.5,367-1183.1,393.3L-1183.1,393.3z M-1287.5,41.7
	c-137.9,0-250,112.1-250,250c0,106.9,67.5,198.4,162.1,234l-11.3-50.9c-65-35.3-109.1-104.2-109.1-183.2
	c0-114.9,93.5-208.3,208.3-208.3s208.3,93.5,208.3,208.3c0,78.7-43.9,147.3-108.4,182.8l-10.7,50.8c93.9-36,160.8-127.1,160.8-233.5
	C-1037.5,153.8-1149.7,41.7-1287.5,41.7z M-1220.3,427.8l-24.1,113.9h-84.8l-24.9-112.3c-3.8-20.3,7.6-39.8,26.5-45.9
	c17.3-5.6,30.8-8.5,40.1-8.5c9.4,0,23,2.9,40.4,8.6C-1228.4,389.7-1216.9,408.7-1220.3,427.8z M-1287.5,333.3
	c23,0,41.7-18.6,41.7-41.7c0-23-18.6-41.7-41.7-41.7c-23,0-41.7,18.6-41.7,41.7C-1329.2,314.7-1310.5,333.3-1287.5,333.3z"/>
<linearGradient id="SVGID_1_" gradientUnits="userSpaceOnUse" x1="154.4771" y1="477.2068" x2="348.259" y2="16.2854">
	<stop  offset="1.396648e-02" style="stop-color:#F98C24"/>
	<stop  offset="0.4804" style="stop-color:#E04369"/>
	<stop  offset="1" style="stop-color:#8C3AA9"/>
</linearGradient>
<path class="st0" d="M419.9,500H80.1C36.1,500,0,463.9,0,419.9V80.1C0,36.1,36.1,0,80.1,0h339.8C463.9,0,500,36.1,500,80.1v339.8
	C500,463.9,463.9,500,419.9,500z"/>
<path class="st1" d="M207.3,250c0-23.5,19.1-42.6,42.6-42.6s42.6,19.1,42.6,42.6s-19.1,42.6-42.6,42.6S207.3,273.6,207.3,250
	 M184.2,250c0,36.3,29.4,65.7,65.7,65.7s65.7-29.4,65.7-65.7s-29.4-65.7-65.7-65.7S184.2,213.7,184.2,250 M303,181.7
	c0,8.5,6.9,15.4,15.4,15.4s15.4-6.9,15.4-15.4c0-8.5-6.9-15.4-15.4-15.4l0,0C309.8,166.4,303,173.2,303,181.7 M198.3,354.2
	c-12.5-0.6-19.2-2.7-23.8-4.4c-6-2.3-10.2-5.1-14.7-9.6s-7.3-8.8-9.6-14.7c-1.7-4.5-3.8-11.3-4.4-23.8c-0.6-13.5-0.8-17.6-0.8-51.7
	s0.2-38.2,0.8-51.7c0.6-12.5,2.7-19.2,4.4-23.8c2.3-6,5.1-10.2,9.6-14.7s8.8-7.3,14.7-9.6c4.5-1.7,11.3-3.8,23.8-4.4
	c13.5-0.6,17.6-0.8,51.7-0.8s38.2,0.2,51.7,0.8c12.5,0.6,19.2,2.7,23.8,4.4c6,2.3,10.2,5.1,14.7,9.6s7.3,8.8,9.6,14.7
	c1.7,4.5,3.8,11.3,4.4,23.8c0.6,13.5,0.8,17.6,0.8,51.7s-0.1,38.2-0.8,51.7c-0.6,12.5-2.7,19.2-4.4,23.8c-2.3,6-5.1,10.2-9.6,14.7
	s-8.8,7.3-14.7,9.6c-4.5,1.7-11.3,3.8-23.8,4.4c-13.5,0.6-17.6,0.8-51.7,0.8S211.7,354.8,198.3,354.2 M197.2,122.8
	c-13.6,0.6-22.9,2.8-31.1,5.9c-8.4,3.3-15.5,7.7-22.6,14.8c-7.1,7.1-11.5,14.2-14.8,22.6c-3.2,8.1-5.3,17.5-5.9,31.1
	c-0.6,13.7-0.8,18-0.8,52.8s0.2,39.1,0.8,52.8c0.6,13.6,2.8,22.9,5.9,31.1c3.3,8.4,7.6,15.6,14.8,22.6s14.2,11.5,22.7,14.7
	c8.1,3.2,17.5,5.3,31.1,5.9c13.7,0.6,18,0.8,52.8,0.8s39.1-0.2,52.8-0.8c13.6-0.6,22.9-2.8,31.1-5.9c8.4-3.3,15.6-7.6,22.7-14.7
	c7.1-7.1,11.5-14.2,14.7-22.7c3.2-8.1,5.3-17.5,5.9-31.1c0.6-13.7,0.8-18,0.8-52.8s-0.2-39.1-0.8-52.8c-0.6-13.6-2.8-22.9-5.9-31.1
	c-3.3-8.3-7.7-15.5-14.8-22.6c-7.1-7.1-14.2-11.5-22.7-14.7c-8.1-3.2-17.5-5.3-31.1-5.9c-13.6-0.7-18-0.8-52.7-0.8
	S210.9,122.2,197.2,122.8"/>
<path class="st1" d="M207.3,250c0-23.5,19.1-42.6,42.6-42.6s42.6,19.1,42.6,42.6s-19.1,42.6-42.6,42.6S207.3,273.6,207.3,250
	 M184.2,250c0,36.3,29.4,65.7,65.7,65.7s65.7-29.4,65.7-65.7s-29.4-65.7-65.7-65.7S184.2,213.7,184.2,250 M303,181.7
	c0,8.5,6.9,15.4,15.4,15.4s15.4-6.9,15.4-15.4c0-8.5-6.9-15.4-15.4-15.4l0,0C309.8,166.4,303,173.2,303,181.7 M198.3,354.2
	c-12.5-0.6-19.2-2.7-23.8-4.4c-6-2.3-10.2-5.1-14.7-9.6s-7.3-8.8-9.6-14.7c-1.7-4.5-3.8-11.3-4.4-23.8c-0.6-13.5-0.8-17.6-0.8-51.7
	s0.2-38.2,0.8-51.7c0.6-12.5,2.7-19.2,4.4-23.8c2.3-6,5.1-10.2,9.6-14.7s8.8-7.3,14.7-9.6c4.5-1.7,11.3-3.8,23.8-4.4
	c13.5-0.6,17.6-0.8,51.7-0.8s38.2,0.2,51.7,0.8c12.5,0.6,19.2,2.7,23.8,4.4c6,2.3,10.2,5.1,14.7,9.6s7.3,8.8,9.6,14.7
	c1.7,4.5,3.8,11.3,4.4,23.8c0.6,13.5,0.8,17.6,0.8,51.7s-0.1,38.2-0.8,51.7c-0.6,12.5-2.7,19.2-4.4,23.8c-2.3,6-5.1,10.2-9.6,14.7
	s-8.8,7.3-14.7,9.6c-4.5,1.7-11.3,3.8-23.8,4.4c-13.5,0.6-17.6,0.8-51.7,0.8S211.7,354.8,198.3,354.2 M197.2,122.8
	c-13.6,0.6-22.9,2.8-31.1,5.9c-8.4,3.3-15.5,7.7-22.6,14.8c-7.1,7.1-11.5,14.2-14.8,22.6c-3.2,8.1-5.3,17.5-5.9,31.1
	c-0.6,13.7-0.8,18-0.8,52.8s0.2,39.1,0.8,52.8c0.6,13.6,2.8,22.9,5.9,31.1c3.3,8.4,7.6,15.6,14.8,22.6s14.2,11.5,22.7,14.7
	c8.1,3.2,17.5,5.3,31.1,5.9c13.7,0.6,18,0.8,52.8,0.8s39.1-0.2,52.8-0.8c13.6-0.6,22.9-2.8,31.1-5.9c8.4-3.3,15.6-7.6,22.7-14.7
	c7.1-7.1,11.5-14.2,14.7-22.7c3.2-8.1,5.3-17.5,5.9-31.1c0.6-13.7,0.8-18,0.8-52.8s-0.2-39.1-0.8-52.8c-0.6-13.6-2.8-22.9-5.9-31.1
	c-3.3-8.3-7.7-15.5-14.8-22.6c-7.1-7.1-14.2-11.5-22.7-14.7c-8.1-3.2-17.5-5.3-31.1-5.9c-13.6-0.7-18-0.8-52.7-0.8
	S210.9,122.2,197.2,122.8"/>
</svg>
