<?xml version="1.0" encoding="utf-8"?>
<!-- Generator: Adobe Illustrator 24.0.0, SVG Export Plug-In . SVG Version: 6.00 Build 0)  -->
<svg version="1.1" id="Layer_1" xmlns="http://www.w3.org/2000/svg" xmlns:xlink="http://www.w3.org/1999/xlink" x="0px" y="0px"
	 viewBox="0 0 500 500" style="enable-background:new 0 0 500 500;" xml:space="preserve">
<style type="text/css">
	.st0{fill:#E5252A;}
	.st1{fill:#FFFFFF;}
</style>
<path d="M-1183.1,393.3c-5-13.5-13.5-25.5-24.7-34.8c15.2-18.1,24.4-41.4,24.4-66.9c0-57.4-46.7-104.2-104.2-104.2
	s-104.2,46.7-104.2,104.2c0,25.5,9.2,48.9,24.5,67c-11,9.3-19.4,21.4-24.3,35.1c-25.9-26.3-41.9-62.4-41.9-102.2
	c0-80.4,65.4-145.8,145.8-145.8s145.8,65.4,145.8,145.8C-1141.7,331.1-1157.5,367-1183.1,393.3L-1183.1,393.3z M-1287.5,41.7
	c-137.9,0-250,112.1-250,250c0,106.9,67.5,198.4,162.1,234l-11.3-50.9c-65-35.3-109.1-104.2-109.1-183.2
	c0-114.9,93.5-208.3,208.3-208.3s208.3,93.5,208.3,208.3c0,78.7-43.9,147.3-108.4,182.8l-10.7,50.8c93.9-36,160.8-127.1,160.8-233.5
	C-1037.5,153.8-1149.7,41.7-1287.5,41.7z M-1220.3,427.8l-24.1,113.9h-84.8l-24.9-112.3c-3.8-20.3,7.6-39.8,26.5-45.9
	c17.3-5.6,30.8-8.5,40.1-8.5c9.4,0,23,2.9,40.4,8.6C-1228.4,389.7-1216.9,408.7-1220.3,427.8z M-1287.5,333.3
	c23,0,41.7-18.6,41.7-41.7c0-23-18.6-41.7-41.7-41.7c-23,0-41.7,18.6-41.7,41.7C-1329.2,314.7-1310.5,333.3-1287.5,333.3z"/>
<path class="st0" d="M419.9,500H80.1C36.1,500,0,463.9,0,419.9V80.1C0,36.1,36.1,0,80.1,0h339.8C463.9,0,500,36.1,500,80.1v339.8
	C500,463.9,463.9,500,419.9,500z"/>
<path class="st1" d="M334.8,181.1l-37.2-37.2c-14.1-14.1-32.9-21.9-52.8-21.9h-48.1c-29.4,0-53.3,23.9-53.3,53.3v149.3
	c0,29.4,23.9,53.3,53.3,53.3h106.6c29.4,0,53.3-23.9,53.3-53.3v-90.8C356.7,213.9,348.9,195.2,334.8,181.1z M319.7,196.1
	c3.4,3.4,6.3,7.2,8.7,11.2h-46.3c-5.9,0-10.6-4.8-10.6-10.6v-46.3c4,2.4,7.8,5.2,11.2,8.7l37.2,37.2L319.7,196.1z M335.3,324.6
	c0,17.6-14.4,32-32,32H196.7c-17.6,0-32-14.4-32-32V175.3c0-17.6,14.4-32,32-32h48.1c1.7,0,3.5,0,5.2,0.2v53.1c0,17.6,14.4,32,32,32
	h53.1c0.2,1.7,0.2,3.4,0.2,5.2V324.6z M197.7,260.6H186c-5.9,0-10.6,4.8-10.6,10.6v47.4c0,3.7,3,6.6,6.6,6.6s6.6-3,6.6-6.6v-13h9
	c12.6,0,22.8-10.1,22.8-22.5c0-12.4-10.2-22.5-22.8-22.5L197.7,260.6z M197.7,292.3h-8.9V274h9c5.1,0,9.5,4.1,9.5,9.2
	c0,5-4.4,9.2-9.5,9.2H197.7z M324.9,267.4c0,3.7-3,6.6-6.6,6.6h-18v12.2h13.2c3.7,0,6.6,3,6.6,6.6c0,3.6-3,6.6-6.6,6.6h-13.2v19.2
	c0,3.7-3,6.6-6.6,6.6c-3.6,0-6.6-3-6.6-6.6v-51.3c0-3.7,3-6.6,6.6-6.6h24.6c3.7,0,6.6,3,6.6,6.6V267.4z M250.9,260.7h-11.6
	c-5.9,0-10.6,4.8-10.6,10.6v47.4c0,3.7,3,6,6.6,6c3.6,0,15.6,0,15.6,0c12.6,0,22.8-10.1,22.8-22.5v-18.9c0-12.4-10.2-22.5-22.8-22.5
	H250.9z M260.5,302.2c0,5-4.4,9.2-9.5,9.2h-8.9v-37.3h9c5.1,0,9.5,4.1,9.5,9.2v19H260.5z"/>
</svg>
