<?xml version="1.0" encoding="utf-8"?>
<!-- Generator: Adobe Illustrator 24.0.0, SVG Export Plug-In . SVG Version: 6.00 Build 0)  -->
<svg version="1.1" id="Layer_1" xmlns="http://www.w3.org/2000/svg" xmlns:xlink="http://www.w3.org/1999/xlink" x="0px" y="0px"
	 viewBox="0 0 500 500" style="enable-background:new 0 0 500 500;" xml:space="preserve">
<style type="text/css">
	.st0{fill:#33A867;}
	.st1{fill:#FFFFFF;}
</style>
<path d="M-1183.1,393.3c-5-13.5-13.5-25.5-24.7-34.8c15.2-18.1,24.4-41.4,24.4-66.9c0-57.4-46.7-104.2-104.2-104.2
	s-104.2,46.7-104.2,104.2c0,25.5,9.2,48.9,24.5,67c-11,9.3-19.4,21.4-24.3,35.1c-25.9-26.3-41.9-62.4-41.9-102.2
	c0-80.4,65.4-145.8,145.8-145.8s145.8,65.4,145.8,145.8C-1141.7,331.1-1157.5,367-1183.1,393.3L-1183.1,393.3z M-1287.5,41.7
	c-137.9,0-250,112.1-250,250c0,106.9,67.5,198.4,162.1,234l-11.3-50.9c-65-35.3-109.1-104.2-109.1-183.2
	c0-114.9,93.5-208.3,208.3-208.3s208.3,93.5,208.3,208.3c0,78.7-43.9,147.3-108.4,182.8l-10.7,50.8c93.9-36,160.8-127.1,160.8-233.5
	C-1037.5,153.8-1149.7,41.7-1287.5,41.7z M-1220.3,427.8l-24.1,113.9h-84.8l-24.9-112.3c-3.8-20.3,7.6-39.8,26.5-45.9
	c17.3-5.6,30.8-8.5,40.1-8.5c9.4,0,23,2.9,40.4,8.6C-1228.4,389.7-1216.9,408.7-1220.3,427.8z M-1287.5,333.3
	c23,0,41.7-18.6,41.7-41.7c0-23-18.6-41.7-41.7-41.7c-23,0-41.7,18.6-41.7,41.7C-1329.2,314.7-1310.5,333.3-1287.5,333.3z"/>
<path class="st0" d="M419.9,500H80.1C36.1,500,0,463.9,0,419.9V80.1C0,36.1,36.1,0,80.1,0h339.8C463.9,0,500,36.1,500,80.1v339.8
	C500,463.9,463.9,500,419.9,500z"/>
<path class="st1" d="M358.5,141.4l-11.2-9.7c-12.9-12.9-33.8-12.9-46.7,0c-0.3,0.3-20.1,26-20.1,26c-12.1,12.8-12.1,33,0,45.7
	l12.4,15.6c-15.6,35.3-39.8,59.6-73.9,74.1l-15.6-12.5c-12.7-12.3-33-12.3-45.7,0c0,0-25.7,19.7-26,20.1
	c-12.9,12.9-12.9,33.8-0.5,46.2l10.7,12.2c12.3,12.3,28.8,19,46.7,19C270.1,378,378,270,378,188.6c0-17.8-6.7-34.5-19.5-47.2
	L358.5,141.4z M188.6,356.6c-12.1,0-23.3-4.5-31-12.3L146.9,332c-4.4-4.4-4.6-11.5-0.4-16.1c0,0,25.5-19.6,25.8-20
	c4.4-4.4,12-4.4,16.5,0c0.3,0.3,21.8,17.5,21.8,17.5c3,2.4,6.9,3,10.4,1.6c44.1-16.8,75.8-48.4,94-93.9c1.4-3.5,0.9-7.6-1.6-10.6
	c0,0-17.2-21.6-17.4-21.8c-4.6-4.6-4.6-11.9,0-16.5c0.3-0.3,20-25.8,20-25.8c4.6-4.1,11.7-4,16.6,0.9l11.2,9.7
	c8.2,8.2,12.8,19.4,12.8,31.6C356.7,262.7,252.5,356.6,188.6,356.6L188.6,356.6z"/>
</svg>
