<?xml version="1.0" encoding="utf-8"?>
<!-- Generator: Adobe Illustrator 24.0.0, SVG Export Plug-In . SVG Version: 6.00 Build 0)  -->
<svg version="1.1" id="Layer_1" xmlns="http://www.w3.org/2000/svg" xmlns:xlink="http://www.w3.org/1999/xlink" x="0px" y="0px"
	 viewBox="0 0 500 500" style="enable-background:new 0 0 500 500;" xml:space="preserve">
<style type="text/css">
	.st0{fill:url(#SVGID_1_);}
	.st1{fill:#FFFFFF;}
</style>
<linearGradient id="SVGID_1_" gradientUnits="userSpaceOnUse" x1="249.6175" y1="-0.2591" x2="250.3825" y2="500.2591">
	<stop  offset="0" style="stop-color:#F153FF"/>
	<stop  offset="1" style="stop-color:#872AC1"/>
</linearGradient>
<path class="st0" d="M419.9,500H80.1C36.1,500,0,463.9,0,419.9V80.1C0,36.1,36.1,0,80.1,0h339.8C463.9,0,500,36.1,500,80.1v339.8
	C500,463.9,463.9,500,419.9,500z"/>
<path class="st1" d="M303.5,302c-2.5-6.9-6.9-13.1-12.6-17.8c7.8-9.3,12.5-21.2,12.5-34.2c0-29.4-23.9-53.3-53.3-53.3
	s-53.3,23.9-53.3,53.3c0,13.1,4.7,25,12.5,34.3c-5.6,4.8-9.9,11-12.4,18c-13.3-13.5-21.5-32-21.5-52.3c0-41.2,33.5-74.7,74.7-74.7
	s74.7,33.5,74.7,74.7C324.7,270.2,316.6,288.6,303.5,302L303.5,302z M250,122c-70.6,0-128,57.4-128,128c0,54.8,34.6,101.6,83,119.8
	l-5.8-26c-33.3-18.1-55.9-53.3-55.9-93.8c0-58.8,47.9-106.7,106.7-106.7S356.7,191.2,356.7,250c0,40.3-22.5,75.4-55.5,93.6l-5.5,26
	C343.8,351.1,378,304.5,378,250C378,179.4,320.6,122,250,122z M284.4,319.7L272.1,378h-43.4l-12.8-57.5c-2-10.4,3.9-20.4,13.6-23.5
	c8.9-2.9,15.8-4.4,20.6-4.4c4.8,0,11.8,1.5,20.7,4.4C280.3,300.2,286.2,309.9,284.4,319.7z M250,271.3c11.8,0,21.3-9.5,21.3-21.3
	c0-11.8-9.5-21.3-21.3-21.3c-11.8,0-21.3,9.5-21.3,21.3C228.7,261.8,238.2,271.3,250,271.3z"/>
</svg>
