<?xml version="1.0" encoding="utf-8"?>
<!-- Generator: Adobe Illustrator 24.0.0, SVG Export Plug-In . SVG Version: 6.00 Build 0)  -->
<svg version="1.1" id="Layer_1" xmlns="http://www.w3.org/2000/svg" xmlns:xlink="http://www.w3.org/1999/xlink" x="0px" y="0px"
	 viewBox="0 0 500 500" style="enable-background:new 0 0 500 500;" xml:space="preserve">
<style type="text/css">
	.st0{fill:#00AFF0;}
	.st1{fill:#FFFFFF;}
</style>
<path class="st0" d="M419.9,500H80.1C36.1,500,0,463.9,0,419.9V80.1C0,36.1,36.1,0,80.1,0h339.8C463.9,0,500,36.1,500,80.1v339.8
	C500,463.9,463.9,500,419.9,500z"/>
<g>
	<path class="st1" d="M293.1,376.2c-3.5-1.1-8.7-2.3-11.5-3.5c-3.5-1.7-7.5-1.7-20.2-1.1c-12.1,0.6-18.4,0-27.1-1.2
		c-46.1-8-83-41.5-96.3-87.6c-2.3-8.7-2.9-13.3-2.9-34c0-22.5-0.6-24.2-3.5-33.4C115,169.8,149,122,197.4,122
		c9.8,0,21.9,2.9,28.8,6.4c4.6,2.3,7.5,2.9,25.4,2.9c16.1,0,22.5,0.6,30.6,2.9c36.3,9.2,65.7,32.9,81.3,65.7
		c9.8,20.2,13.3,40.9,11,64.6c-1.1,12.7-1.1,13.8,1.7,21.3c9.2,27.1,0.6,58.2-21.9,76.7c-6.9,5.8-20.7,12.1-29.4,14.4
		c-8.7,1.7-22.5,1.7-31.1-0.6L293.1,376.2L293.1,376.2z"/>
	<path class="st0" d="M277.6,331.8c19.1-4,35.7-15.6,42.1-29.4c8.1-16.7,5.7-36.3-5.2-48.5c-9.2-10.4-23-16.1-55.9-24.2
		c-21.9-5.2-27.1-7.5-31.7-12.7c-4-4.6-4.6-8.1-1.1-13.3c3.5-5.8,12.1-9.2,23.6-9.8c16.7-1.1,24.2,2.9,34,18.4
		c7.5,11.5,15,14.4,24.8,9.8c12.7-6.4,11.5-27.1-2.3-39.2c-13.3-11-27.7-15.6-51.9-15.6c-25.4,0-42.7,5.2-54.2,16.7
		c-9.2,9.2-11,14.4-11,28.8c0,15,1.7,19.6,11.5,28.3c10.4,9.8,19,13.3,50.1,20.7c21.9,5.2,27.7,8.1,32.9,13.8
		c2.3,2.9,3.5,5.2,3.5,10.4c0,5.8-0.6,6.9-5.2,11.5c-6.9,6.9-17.3,9.8-30.6,9.2c-15.6-1.2-22.5-5.8-30.6-21.9
		c-5.8-10.9-10.4-14.9-17.9-14.9c-16.7,0-22.5,13.8-13.8,31.7c7.5,15.6,22.5,26,41.5,30c11.5,2.3,36.9,2.3,47.8,0H277.6L277.6,331.8
		z"/>
</g>
</svg>
