<?xml version="1.0" encoding="utf-8"?>
<!-- Generator: Adobe Illustrator 24.0.0, SVG Export Plug-In . SVG Version: 6.00 Build 0)  -->
<svg version="1.1" id="Layer_1" xmlns="http://www.w3.org/2000/svg" xmlns:xlink="http://www.w3.org/1999/xlink" x="0px" y="0px"
	 viewBox="0 0 500 500" style="enable-background:new 0 0 500 500;" xml:space="preserve">
<style type="text/css">
	.st0{fill:#EEE312;}
	.st1{fill:#1A1A1A;}
</style>
<path class="st0" d="M419.9,500H80.1C36.1,500,0,463.9,0,419.9V80.1C0,36.1,36.1,0,80.1,0h339.8C463.9,0,500,36.1,500,80.1v339.8
	C500,463.9,463.9,500,419.9,500z"/>
<g>
	<path class="st1" d="M249.8,362.3c22.3,0,38.9-16.4,38.9-16.4c1.4-1.2,3.1-2.4,3.1-2.4c13.3-8.8,34.9-2.4,34.9-2.4
		c7.9,1.9,8.1-4.1,8.1-4.1l0.6-6.7c0.6-6.6,10.7-6.5,10.7-6.5c13.3-0.6,19-6,21.3-9.9c2.5-3.7-2.2-4.8-2.2-4.8
		c-32.2-9-47.8-39.5-47.8-39.5c-7.2-12.8,2.7-17.9,2.7-17.9c2.7-1.9,15.9-6.3,15.9-6.3c10.9-4.3,7.2-11.9,7.2-11.9
		c-4.1-8.1-13.5-2.7-13.5-2.7c-4.5,2.3-7.8,2.1-7.8,2.1c-7.5,0.1-8.4-1.4-8.4-1.4l0.3-35.3c0-32.3-28.5-58.5-63.7-58.5h-0.6
		c-35.2,0-63.7,26.2-63.7,58.5l0.3,35.3c0,0-0.9,1.6-8.4,1.4c0,0-3.4,0.2-7.8-2.1c0,0-9.5-5.5-13.5,2.7c0,0-3.6,7.6,7.2,11.9
		c0,0,13.2,4.3,15.9,6.3c0,0,9.9,5.2,2.7,17.9c0,0-15.6,30.6-47.8,39.5c0,0-4.7,1-2.2,4.8c2.3,3.9,7.9,9.3,21.3,9.9
		c0,0,10.1-0.1,10.7,6.5l0.6,6.7c0,0,0.2,5.9,8.1,4.1c0,0,21.6-6.3,34.9,2.4c0,0,1.7,1.2,3.1,2.4C211,345.9,227.6,362.3,249.8,362.3
		L249.8,362.3z"/>
	<path class="st1" d="M250.1,372.1h-0.3c-0.1,0-0.1,0-0.2,0c-24.1-0.2-42-16.2-44.9-18.8c-0.8-0.6-1.7-1.3-2.1-1.7
		c-7.7-5-22.2-2.4-26.8-1.2c-0.1,0.1-0.3,0.1-0.5,0.1c-7.1,1.7-11.8-0.3-14.4-2.4c-3.8-2.9-5.4-7.2-5.7-10.4l-0.3-4.1
		c-0.4-0.1-0.8-0.1-1.2-0.1c-0.2,0-0.2,0-0.4,0c-18-0.7-25.9-9.2-29.1-14.4c-2.3-3.7-2.9-7.9-1.4-11.6c2.2-5.5,7.3-7.2,9.4-7.8
		c27.4-7.7,41.5-34.3,41.6-34.6c0.1-0.1,0.1-0.3,0.2-0.3c1.3-2.3,1.4-3.7,1.3-4.1c-0.1-0.1-0.2-0.3-0.3-0.4
		c-0.1-0.1-0.1-0.1-0.1-0.1c-0.2-0.1,0.4,0.2,0.4,0.2l4.5-8.6l-5.7,7.9c0.1,0.1,0.1,0.1,0.3,0.2c-1.4-0.8-7.7-3.2-13.6-5.1
		c-0.2-0.1-0.4-0.1-0.6-0.2c-8-3.2-11.4-8.2-12.8-11.8c-2-5.2-1.1-10.3,0.3-13.5c0-0.1,0.1-0.1,0.1-0.1c2.3-4.6,5.9-7.7,10.5-9.2
		c7.5-2.3,14.6,1.2,16.4,2.2c0.6,0.3,1.2,0.6,1.7,0.7l-0.2-26.7v-0.1c0-37.7,32.9-68.3,73.4-68.3h0.6c40.5,0,73.4,30.6,73.4,68.3
		v0.1l-0.2,26.7c0.5-0.1,1-0.3,1.7-0.7c1.8-1,8.8-4.5,16.4-2.2c4.6,1.4,8.2,4.6,10.5,9.2c0,0.1,0.1,0.1,0.1,0.1
		c1.5,3.1,2.3,8.3,0.3,13.5c-1.4,3.6-4.8,8.6-12.8,11.8c-0.2,0.1-0.4,0.1-0.6,0.2c-5.7,1.9-11.9,4.2-13.5,5
		c-0.4,0.3-0.3,0.3-0.8,0.5c-0.8,0.8,0.1,2.9,1,4.6c0.1,0.1,0.1,0.3,0.2,0.4c0.1,0.2,14.2,26.8,41.6,34.6c2,0.5,7.2,2.3,9.4,7.8
		c1.5,3.7,1,7.9-1.4,11.6c-3.2,5.2-11.1,13.7-29.1,14.4c-0.2,0-0.2,0-0.4,0c-0.3,0-0.8,0.1-1.2,0.1l-0.3,4.1
		c-0.2,3.2-1.8,7.5-5.7,10.4c-2.6,2-7.3,4.1-14.4,2.4c-0.1-0.1-0.3-0.1-0.5-0.1c-4.5-1.3-19-3.8-26.7,1.2c-0.4,0.3-1.3,1-2.1,1.7
		c-2.8,2.6-20.8,18.6-44.9,18.8C250.3,372.1,250.2,372.1,250.1,372.1z M189.4,329.1c7.7,0,16.6,1.4,23.9,6.3
		c0.1,0.1,0.1,0.1,0.3,0.1c0.2,0.1,2.1,1.4,3.8,2.9c0.2,0.1,0.4,0.3,0.6,0.6c0.1,0.1,14.1,13.5,32,13.6c17.7-0.1,31.8-13.5,32-13.6
		c0.2-0.2,0.3-0.3,0.6-0.5c1.7-1.4,3.6-2.8,3.8-2.9c0.1-0.1,0.1-0.1,0.3-0.2c13.3-8.8,31.2-6.3,39.1-4.6l0.1-1.4
		c0.9-10.6,11-15.4,20.2-15.4c1.3-0.1,2.5-0.2,3.7-0.3c-26.2-12.6-39.3-36.6-40.8-39.3c-4.7-8.4-4.2-15-3-19.2
		c2.1-7,7.2-10.6,9.2-11.8c0.4-0.3,0.9-0.6,1.5-0.8c-4.1-0.5-9-1.9-11.4-6.2c-0.8-1.4-1.2-3.2-1.2-4.8l0.3-35.3
		c0-26.9-24.2-48.7-53.9-48.7h-0.6c-29.7,0-53.9,21.9-53.9,48.7l0.3,35.3c0,1.7-0.4,3.4-1.2,4.8c-2.4,4.3-7.2,5.7-11.4,6.2
		c0.6,0.3,1,0.6,1.4,0.8c1.9,1.2,7.1,4.8,9.2,11.8c1.2,4.1,1.7,10.8-3,19.2c-1.4,2.8-14.6,26.7-40.8,39.3c1.2,0.2,2.3,0.3,3.7,0.3
		c9.2,0,19.3,4.8,20.2,15.5l0.1,1.3C177.9,330,183.3,329.1,189.4,329.1z M325.2,336.2c0,0.2,0,0.3,0,0.4
		C325.2,336.5,325.2,336.3,325.2,336.2z M174.8,336.2c0,0.1,0,0.3,0,0.4C174.8,336.5,174.8,336.4,174.8,336.2z M154.7,331.2
		L154.7,331.2L154.7,331.2z M345.2,331.2L345.2,331.2L345.2,331.2z M363.1,318.7L363.1,318.7L363.1,318.7z M359.4,308.5
		C359.4,308.5,359.4,308.5,359.4,308.5C359.4,308.5,359.4,308.5,359.4,308.5z M140.6,308.5L140.6,308.5L140.6,308.5z M318.1,223
		L318.1,223L318.1,223z"/>
</g>
</svg>
