<?xml version="1.0" encoding="utf-8"?>
<!-- Generator: Adobe Illustrator 24.0.0, SVG Export Plug-In . SVG Version: 6.00 Build 0)  -->
<svg version="1.1" id="Layer_1" xmlns="http://www.w3.org/2000/svg" xmlns:xlink="http://www.w3.org/1999/xlink" x="0px" y="0px"
	 viewBox="0 0 500 500" style="enable-background:new 0 0 500 500;" xml:space="preserve">
<style type="text/css">
	.st0{fill:#2EBD59;}
	.st1{fill:#FFFFFF;}
</style>
<path class="st0" d="M419.9,500H80.1C36.1,500,0,463.9,0,419.9V80.1C0,36.1,36.1,0,80.1,0h339.8C463.9,0,500,36.1,500,80.1v339.8
	C500,463.9,463.9,500,419.9,500z"/>
<path class="st1" d="M250,122c-70.7,0-128,57.3-128,127.9s57.3,128,128,128s128-57.3,128-128C377.9,179.3,320.7,122,250,122z
	 M308.7,306.6c-2.3,3.8-7.2,5-11,2.7c-30.1-18.4-67.9-22.5-112.4-12.4c-4.3,1-8.6-1.7-9.5-6c-1-4.3,1.7-8.6,6-9.5
	c48.8-11.1,90.6-6.4,124.3,14.3C309.8,297.9,311,302.8,308.7,306.6z M324.3,271.8c-2.9,4.7-9,6.2-13.7,3.3
	c-34.4-21.1-86.8-27.3-127.5-14.9c-5.3,1.6-10.9-1.4-12.5-6.7c-1.6-5.3,1.4-10.8,6.7-12.5c46.5-14.1,104.3-7.3,143.7,17
	C325.7,260.9,327.2,267.1,324.3,271.8L324.3,271.8z M325.7,235.5c-41.2-24.5-109.3-26.8-148.7-14.8c-6.3,1.9-13-1.6-14.9-7.9
	s1.6-13,8-14.9c45.2-13.7,120.4-11.1,167.8,17.1c5.7,3.4,7.5,10.7,4.2,16.4C338.7,236.9,331.3,238.8,325.7,235.5z"/>
</svg>
