<?xml version="1.0" encoding="utf-8"?>
<!-- Generator: Adobe Illustrator 24.0.0, SVG Export Plug-In . SVG Version: 6.00 Build 0)  -->
<svg version="1.1" id="Layer_1" xmlns="http://www.w3.org/2000/svg" xmlns:xlink="http://www.w3.org/1999/xlink" x="0px" y="0px"
	 viewBox="0 0 500 500" style="enable-background:new 0 0 500 500;" xml:space="preserve">
<style type="text/css">
	.st0{fill:#25F4EE;}
	.st1{fill:#FE2C55;}
	.st2{fill:#FFFFFF;}
</style>
<path d="M419.9,500H80.1C36.1,500,0,463.9,0,419.9V80.1C0,36.1,36.1,0,80.1,0h339.8C463.9,0,500,36.1,500,80.1v339.8
	C500,463.9,463.9,500,419.9,500z"/>
<g>
	<g>
		<path class="st0" d="M225,222.8v-10c-3.5-0.6-7-0.9-10.4-0.9c-33.9-0.1-64,21.9-74.2,54.3c-10.2,32.4,1.8,67.6,29.7,87
			c-29.2-31.3-27.5-80.3,3.7-109.6C187.7,230.7,205.9,223.2,225,222.8L225,222.8z"/>
		<path class="st0" d="M226.9,335.8c19-0.1,34.6-15,35.4-33.9V132.7h30.9c-0.7-3.5-1-7.1-1-10.7H250v169
			c-0.7,19-16.3,34.2-35.4,34.2c-5.7-0.1-11.3-1.4-16.3-4.1C204.9,330.3,215.5,335.8,226.9,335.8z M350.9,190.1v-9.4
			c-11.4,0-22.5-3.3-32-9.6C327.2,180.7,338.5,187.4,350.9,190.1z"/>
	</g>
	<path class="st1" d="M318.9,171.1c-9.3-10.7-14.5-24.3-14.5-38.5h-11.3C296.2,148.4,305.4,162.3,318.9,171.1z M214.5,254.2
		c-19.6,0.1-35.4,16.1-35.3,35.7c0.1,13.1,7.4,25.1,18.9,31.2c-11.5-15.8-7.9-38,7.9-49.5c6-4.4,13.3-6.8,20.8-6.7
		c3.5,0.1,7.1,0.6,10.4,1.6v-43c-3.5-0.5-7-0.8-10.4-0.8h-1.9v32.7C221.6,254.5,218.1,254.1,214.5,254.2z"/>
	<path class="st1" d="M350.9,190.1v32.7c-21-0.1-41.6-6.7-58.6-19v85.9c-0.1,42.9-34.9,77.6-77.8,77.6c-15.9,0.1-31.5-4.9-44.5-14.1
		c29.2,31.4,78.3,33.2,109.7,4c15.8-14.7,24.8-35.3,24.8-56.8v-85.7c17.1,12.3,37.6,18.8,58.7,18.8v-42.1
		C359.1,191.4,354.9,191,350.9,190.1L350.9,190.1z"/>
	<path class="st2" d="M292.3,289.7v-85.9c17.1,12.3,37.6,18.8,58.7,18.8v-32.7c-12.4-2.6-23.7-9.2-32.1-18.8
		c-13.5-8.8-22.8-22.6-25.8-38.5h-30.9v169.3c-0.8,19.6-17.3,34.8-36.9,34c-10.9-0.5-20.9-5.8-27.3-14.6
		c-17.4-9.1-24-30.6-14.8-47.9c6.1-11.6,18.1-18.9,31.2-18.9c3.5,0.1,7.1,0.6,10.4,1.6v-32.7c-42.8,0.7-76.9,36-76.2,78.8
		c0.3,19.4,7.9,37.9,21.2,52c13.2,8.9,28.7,13.5,44.5,13.2C257.4,367.3,292.2,332.6,292.3,289.7L292.3,289.7z"/>
</g>
</svg>
