<?xml version="1.0" encoding="utf-8"?>
<!-- Generator: Adobe Illustrator 24.0.0, SVG Export Plug-In . SVG Version: 6.00 Build 0)  -->
<svg version="1.1" id="Layer_1" xmlns="http://www.w3.org/2000/svg" xmlns:xlink="http://www.w3.org/1999/xlink" x="0px" y="0px"
	 viewBox="0 0 500 500" style="enable-background:new 0 0 500 500;" xml:space="preserve">
<style type="text/css">
	.st0{fill:url(#SVGID_1_);}
	.st1{fill:#FFFFFF;}
</style>
<linearGradient id="SVGID_1_" gradientUnits="userSpaceOnUse" x1="248.557" y1="500.9698" x2="251.443" y2="-0.9698">
	<stop  offset="0" style="stop-color:#3F51B5"/>
	<stop  offset="1" style="stop-color:#2196F3"/>
</linearGradient>
<path class="st0" d="M419.9,500H80.1C36.1,500,0,463.9,0,419.9V80.1C0,36.1,36.1,0,80.1,0h339.8C463.9,0,500,36.1,500,80.1v339.8
	C500,463.9,463.9,500,419.9,500z"/>
<path class="st1" d="M227.7,268.6l-3.9-45h11.1l2.7,33.7l12.9-24.8l12.9,24.8l2.6-33.7h11.1l-3.9,45c-0.3,4.7-3.6,8.3-7.5,8.3
	c-2.6,0-5-1.6-6.4-4.2l-8.8-17l-8.9,17c-1.4,2.7-3.8,4.2-6.4,4.2C231.3,276.9,228,273.3,227.7,268.6L227.7,268.6z M298.7,276.9
	c2.6,0,5-1.6,6.4-4.2l8.9-17l8.9,17c1.4,2.7,3.8,4.2,6.4,4.2c3.9,0,7.2-3.6,7.5-8.3l3.9-45h-11.2l-2.6,33.7l-12.9-24.8L301,257.3
	l-2.7-33.7h-11.1l3.9,45C291.5,273.3,294.8,276.9,298.7,276.9L298.7,276.9z M163.2,268.6c0.3,4.7,3.6,8.3,7.5,8.3
	c2.6,0,5-1.6,6.4-4.2l8.9-17l8.9,17c1.4,2.7,3.8,4.2,6.4,4.2c3.9,0,7.2-3.6,7.5-8.3l3.9-45h-11.2l-2.6,33.7l-12.9-24.8L173,257.3
	l-2.7-33.7h-11.1L163.2,268.6L163.2,268.6z M378,250c0,70.6-57.4,128-128,128s-128-57.4-128-128s57.4-128,128-128S378,179.4,378,250
	L378,250z M277.8,147.1c8.2,10.2,17.5,23.4,25.2,38.9h32.2C321,167.3,301,153.4,277.8,147.1z M250,147.8
	c-7.2,7.7-18.8,21.2-28.7,38.3h57.4C268.7,168.9,257.2,155.4,250,147.8L250,147.8z M164.9,186H197c7.7-15.5,17-28.7,25.2-38.9
	C199,153.4,178.9,167.3,164.9,186z M143.3,250c0,15.2,3.2,29.6,9,42.6h195.4c5.7-13.1,9-27.5,9-42.6c0-15.2-3.2-29.6-9-42.6H152.3
	C146.6,220.4,143.3,234.8,143.3,250z M221.3,314c9.9,17.1,21.5,30.6,28.7,38.3c7.2-7.7,18.8-21.2,28.7-38.3H221.3L221.3,314z
	 M222.2,352.9c-8.2-10.2-17.5-23.4-25.2-38.9h-32.2C178.9,332.7,199,346.6,222.2,352.9z M335.1,314h-32.2
	c-7.7,15.5-17,28.7-25.2,38.9C301,346.6,321,332.7,335.1,314z"/>
</svg>
