<?xml version="1.0" encoding="utf-8"?>
<!-- Generator: Adobe Illustrator 24.0.0, SVG Export Plug-In . SVG Version: 6.00 Build 0)  -->
<svg version="1.1" id="Layer_1" xmlns="http://www.w3.org/2000/svg" xmlns:xlink="http://www.w3.org/1999/xlink" x="0px" y="0px"
	 viewBox="0 0 500 500" style="enable-background:new 0 0 500 500;" xml:space="preserve">
<style type="text/css">
	.st0{fill:#00E676;}
	.st1{fill:#FFFFFF;}
</style>
<path class="st0" d="M419.9,500H80.1C36.1,500,0,463.9,0,419.9V80.1C0,36.1,36.1,0,80.1,0h339.8C463.9,0,500,36.1,500,80.1v339.8
	C500,463.9,463.9,500,419.9,500z"/>
<g>
	<path class="st0" d="M189.9,343.4l4.1,2.1c16.9,10.1,36.3,15.3,56,15.2c60.6-0.2,110.4-50.1,110.4-110.7
		c0-29.3-11.6-57.4-32.3-78.2c-20.7-20.9-48.9-32.8-78.3-32.8c-60.4,0-110,49.7-110,110c0,0.5,0,1,0,1.4
		c0.2,20.5,5.9,40.6,16.6,58.1l2.8,4.1l-11.1,40.8L189.9,343.4L189.9,343.4z"/>
	<path class="st1" d="M340.4,159.4c-23.6-24.1-55.9-37.5-89.5-37.4h-0.2c-69.3,0-126.4,57-126.4,126.4c0,0.3,0,0.7,0,1
		c0.3,22,6,43.7,16.6,63L123,378l67-17.3c18.5,10.2,39.3,15.4,60.5,15.2C320,375.5,377,318.1,377,248.6
		C377.2,215.2,364,183,340.4,159.4 M250.9,354.5c-18.7,0.1-37.1-4.9-53.2-14.5l-4.1-2.1l-39.9,10.4l10.4-39.4l-2.8-4.1
		c-10.3-16.6-15.8-35.7-15.8-55.3c0-57.6,47.4-105,105-105s105,47.4,105,105c0,36.2-18.8,70-49.6,89.1c-16.3,10.4-35.2,16-54.6,15.9
		 M312.1,277.7l-7.6-3.5c0,0-11.1-4.9-18-8.3c-0.7,0-1.4-0.7-2.1-0.7c-1.7,0.1-3.4,0.5-4.9,1.4c-1.5,0.9-0.7,0.7-10.4,11.8
		c-0.7,1.3-2,2.1-3.5,2.1H265c-1-0.2-2-0.7-2.8-1.4l-3.5-1.4c-7.4-3.1-14.2-7.6-20.1-13.2c-1.4-1.4-3.5-2.8-4.9-4.1
		c-5.1-4.9-9.5-10.5-13.2-16.6l-0.7-1.4c-0.6-0.9-1.1-1.8-1.4-2.8c-0.2-1.2,0.1-2.4,0.7-3.5c0.6-1,2.8-3.5,4.9-5.5
		c2.1-2.1,2.1-3.5,3.5-4.9c1.4-2,1.9-4.5,1.4-6.9c-3.2-9-6.9-17.7-11.1-26.3c-1.1-1.7-2.9-3-4.9-3.5h-7.6c-1.4,0-2.8,0.7-4.1,0.7
		l-0.7,0.7c-1.4,0.7-2.8,2.1-4.1,2.8c-1.4,0.7-2.1,2.8-3.5,4.1c-4.8,6.1-7.5,13.7-7.6,21.5c0.1,5.5,1.2,10.9,3.5,15.9l0.7,2.1
		c6.2,13.3,14.9,25.2,25.6,35.3l2.8,2.8c2,1.7,3.9,3.5,5.5,5.5c14.3,12.5,31.4,21.5,49.8,26.3c2.1,0.7,4.9,0.7,6.9,1.4h6.9
		c3.6-0.2,7.2-1.1,10.4-2.8c1.7-0.8,3.3-1.7,4.9-2.8l1.4-1.4c1.4-1.4,2.8-2.1,4.1-3.5c1.3-1.2,2.5-2.6,3.5-4.1
		c1.3-3.1,2.3-6.3,2.8-9.7v-4.9c-0.6-0.6-1.3-1-2.1-1.4"/>
</g>
</svg>
