<svg width="10" height="10" viewBox="0 0 10 10" fill="none" xmlns="http://www.w3.org/2000/svg">
<path d="M2.81542 4.58333H1.25C1.02 4.58333 0.833333 4.77 0.833333 5V6.25H0V5C0 4.31083 0.560833 3.75 1.25 3.75H1.98208L2.81542 4.58333ZM3.75 7.5C3.06083 7.5 2.5 8.06083 2.5 8.75V10H3.33333V8.75C3.33333 8.52042 3.52042 8.33333 3.75 8.33333H6.56542L5.73208 7.5H3.75ZM6.66667 10H7.5V9.26792L6.66667 8.43458V10ZM8.75 3.75H6.85958C7.07542 3.99042 7.24458 4.2725 7.35458 4.58333H8.75C8.98 4.58333 9.16667 4.77 9.16667 5V6.25H10V5C10 4.31083 9.43917 3.75 8.75 3.75ZM6.56958 5.98042L9.98208 9.39292L9.39292 9.98208L0.0179167 0.607083L0.607083 0.0179167L1.20583 0.616667C1.51667 0.234583 1.98875 0 2.5 0C3.41917 0 4.16667 0.7475 4.16667 1.66667C4.16667 2.1775 3.93208 2.65 3.55 2.96083L4.445 3.85583C5.03333 3.65875 5.72667 3.78625 6.17833 4.23833C6.49333 4.55292 6.66667 4.97167 6.66667 5.41667C6.66667 5.61167 6.63333 5.80167 6.56958 5.98042ZM1.80125 1.21208L2.95458 2.36542C3.18667 2.21417 3.33333 1.9525 3.33333 1.66667C3.33333 1.20708 2.95958 0.833333 2.5 0.833333C2.21417 0.833333 1.95292 0.98 1.80125 1.21208ZM5.83333 1.66667C5.83333 0.7475 6.58083 0 7.5 0C8.41917 0 9.16667 0.7475 9.16667 1.66667C9.16667 2.58583 8.41917 3.33333 7.5 3.33333C6.58083 3.33333 5.83333 2.58583 5.83333 1.66667ZM6.66667 1.66667C6.66667 2.12625 7.04042 2.5 7.5 2.5C7.95958 2.5 8.33333 2.12625 8.33333 1.66667C8.33333 1.20708 7.95958 0.833333 7.5 0.833333C7.04042 0.833333 6.66667 1.20708 6.66667 1.66667ZM5 7.08333C5.09833 7.08333 5.19292 7.07083 5.28667 7.05417L3.3625 5.13C3.34625 5.22333 3.33333 5.31833 3.33333 5.41667C3.33333 6.33583 4.08083 7.08333 5 7.08333Z" fill="#8231D3"/>
</svg>
