<svg width="18" height="18" viewBox="0 0 18 18" fill="none" xmlns="http://www.w3.org/2000/svg">
<path d="M17.3382 0.64322C16.9063 0.230391 16.3319 0 15.7345 0C15.1371 0 14.5627 0.230391 14.1308 0.64322L11.5753 3.19875C11.0978 3.68059 10.4504 3.95605 9.77208 3.966C9.09378 3.97596 8.43859 3.71963 7.94713 3.25201L6.90077 4.32913L8.41969 5.84805L1.51892 12.7488C1.11741 13.1461 0.856672 13.6636 0.776379 14.2227C0.696087 14.7817 0.800637 15.3517 1.07412 15.8459L0 16.92L1.06062 17.9806L2.13474 16.9065C2.62892 17.18 3.19891 17.2846 3.75799 17.2043C4.31706 17.124 4.83459 16.8632 5.23183 16.4617L12.1326 9.56096L13.6515 11.0799L14.7271 10.035C14.2593 9.54364 14.0029 8.88842 14.0128 8.21006C14.0228 7.5317 14.2984 6.88429 14.7804 6.40686L17.3359 3.85133C17.7611 3.42609 18 2.84937 18 2.24802C18 1.64668 17.7611 1.06995 17.3359 0.64472L17.3382 0.64322ZM4.17046 15.4011C3.95615 15.6057 3.67127 15.7198 3.375 15.7198C3.07873 15.7198 2.79386 15.6057 2.57954 15.4011C2.36861 15.1901 2.25012 14.904 2.25012 14.6056C2.25012 14.3073 2.36861 14.0212 2.57954 13.8102L9.4803 6.90942L11.0712 8.50034L4.17046 15.4011ZM16.2768 2.78921L13.7213 5.34474C13.0484 6.01266 12.6279 6.89329 12.5316 7.83652L10.1441 5.449C11.0874 5.35273 11.968 4.9323 12.6359 4.25937L15.1922 1.70384C15.3381 1.56401 15.5324 1.48595 15.7345 1.48595C15.9366 1.48595 16.1309 1.56401 16.2768 1.70384C16.3482 1.77504 16.4048 1.85963 16.4434 1.95275C16.4821 2.04588 16.502 2.1457 16.502 2.24652C16.502 2.34734 16.4821 2.44717 16.4434 2.54029C16.4048 2.63341 16.3482 2.718 16.2768 2.78921Z" fill="#4C4C4C"/>
</svg>
