<svg width="20" height="20" viewBox="0 0 20 20" fill="none" xmlns="http://www.w3.org/2000/svg">
<path d="M20.0005 9.98456C19.9987 9.30618 19.7897 8.64454 19.4014 8.08827C19.0131 7.53199 18.4641 7.10764 17.828 6.87206L17.7963 6.79623C16.9696 4.77409 15.3869 3.15405 13.3846 2.2804L13.1105 2.1604C12.8744 1.52616 12.4501 0.979277 11.8943 0.59312C11.3386 0.206962 10.678 0 10.0013 0C9.32455 0 8.664 0.206962 8.10826 0.59312C7.55251 0.979277 7.12816 1.52616 6.89212 2.1604L6.54379 2.31706C4.55924 3.21844 2.99729 4.84842 2.18129 6.86956C1.54407 7.10173 0.993346 7.52365 0.603329 8.07847C0.213311 8.63329 0.00275113 9.29434 2.67745e-05 9.97252C-0.00269758 10.6507 0.202545 11.3134 0.588092 11.8714C0.973639 12.4293 1.52096 12.8556 2.15629 13.0929L2.26295 13.3429C3.09908 15.2836 4.63465 16.8389 6.56462 17.6996L6.89212 17.8462C7.12882 18.4796 7.55334 19.0255 8.10885 19.4109C8.66435 19.7963 9.32434 20.0028 10.0005 20.0028C10.6766 20.0028 11.3366 19.7963 11.8921 19.4109C12.4476 19.0255 12.8721 18.4796 13.1088 17.8462L13.4146 17.7104C15.4334 16.8077 17.0206 15.1533 17.8388 13.0987C18.4728 12.8607 19.0193 12.4352 19.4054 11.8789C19.7916 11.3225 19.9991 10.6618 20.0005 9.98456ZM10.0005 1.6654C10.3301 1.6654 10.6523 1.76314 10.9264 1.94628C11.2005 2.12942 11.4141 2.38971 11.5403 2.69426C11.6664 2.9988 11.6994 3.33391 11.6351 3.65721C11.5708 3.98052 11.4121 4.27749 11.179 4.51057C10.9459 4.74366 10.6489 4.9024 10.3256 4.96671C10.0023 5.03101 9.66719 4.99801 9.36265 4.87186C9.0581 4.74572 8.79781 4.5321 8.61467 4.25801C8.43153 3.98393 8.33379 3.6617 8.33379 3.33206C8.33379 2.89004 8.50938 2.46611 8.82194 2.15355C9.1345 1.84099 9.55842 1.6654 10.0005 1.6654ZM3.32379 8.31956L3.39212 8.3454L3.40045 8.32456C3.81804 8.36193 4.20406 8.56237 4.47485 8.88244C4.74565 9.20251 4.87937 9.61641 4.84705 10.0344C4.81472 10.4524 4.61895 10.8408 4.30217 11.1155C3.98538 11.3901 3.57313 11.5288 3.15476 11.5015C2.7364 11.4742 2.34565 11.2832 2.06722 10.9697C1.78879 10.6563 1.64513 10.2457 1.66737 9.82704C1.68961 9.40838 1.87596 9.01535 2.18603 8.73317C2.49609 8.45098 2.90489 8.30237 3.32379 8.31956ZM10.0005 18.3321C9.67082 18.3321 9.34858 18.2343 9.0745 18.0512C8.80042 17.868 8.5868 17.6077 8.46065 17.3032C8.33451 16.9987 8.3015 16.6635 8.36581 16.3402C8.43012 16.0169 8.58885 15.72 8.82194 15.4869C9.05503 15.2538 9.352 15.0951 9.6753 15.0308C9.9986 14.9664 10.3337 14.9995 10.6383 15.1256C10.9428 15.2517 11.2031 15.4654 11.3862 15.7394C11.5694 16.0135 11.6671 16.3358 11.6671 16.6654C11.6671 17.1074 11.4915 17.5313 11.179 17.8439C10.8664 18.1565 10.4425 18.3321 10.0005 18.3321ZM13.2446 15.9271C13.0787 15.1904 12.6671 14.5321 12.0774 14.0605C11.4878 13.5888 10.7551 13.3319 10 13.3319C9.24494 13.3319 8.51231 13.5888 7.92264 14.0605C7.33296 14.5321 6.92134 15.1904 6.75545 15.9271C5.61761 15.3061 4.68281 14.3705 4.06295 13.2321C4.7973 13.0661 5.45362 12.656 5.9246 12.0686C6.39559 11.4813 6.65336 10.7515 6.65578 9.9987C6.6582 9.24584 6.40512 8.51445 5.93792 7.92409C5.47072 7.33374 4.81705 6.91937 4.08379 6.74873C4.70593 5.62635 5.63191 4.7021 6.75545 4.08206C6.92203 4.81789 7.33385 5.47522 7.92328 5.94613C8.51272 6.41705 9.24475 6.67356 9.9992 6.67356C10.7537 6.67356 11.4857 6.41705 12.0751 5.94613C12.6646 5.47522 13.0764 4.81789 13.243 4.08206C14.3657 4.70142 15.2922 5.62328 15.9171 6.7429C15.1816 6.91089 14.5251 7.32397 14.0553 7.91431C13.5855 8.50466 13.3304 9.23719 13.3319 9.99164C13.3333 10.7461 13.5912 11.4776 14.0633 12.0662C14.5353 12.6547 15.1935 13.0652 15.9296 13.2304C15.3078 14.3652 14.3767 15.3003 13.2446 15.9271ZM16.6671 11.6512C16.3375 11.6512 16.0153 11.5535 15.7412 11.3703C15.4671 11.1872 15.2535 10.9269 15.1273 10.6224C15.0012 10.3178 14.9682 9.98271 15.0325 9.65941C15.0968 9.33611 15.2555 9.03914 15.4886 8.80605C15.7217 8.57296 16.0187 8.41423 16.342 8.34992C16.6653 8.28561 17.0004 8.31862 17.3049 8.44476C17.6095 8.57091 17.8698 8.78453 18.0529 9.05861C18.236 9.3327 18.3338 9.65493 18.3338 9.98456C18.3338 10.4266 18.1582 10.8505 17.8456 11.1631C17.5331 11.4756 17.1091 11.6512 16.6671 11.6512Z" fill="#8231D3"/>
</svg>
