<svg width="15" height="20" viewBox="0 0 15 20" fill="none" xmlns="http://www.w3.org/2000/svg">
<path d="M5.83333 8.33334C5.17029 8.33334 4.5344 8.59673 4.06556 9.06557C3.59672 9.53441 3.33333 10.1703 3.33333 10.8333C3.33333 11.4964 3.59672 12.1323 4.06556 12.6011C4.5344 13.0699 5.17029 13.3333 5.83333 13.3333H9.16666C9.8297 13.3333 10.4656 13.0699 10.9344 12.6011C11.4033 12.1323 11.6667 11.4964 11.6667 10.8333C11.6667 10.1703 11.4033 9.53441 10.9344 9.06557C10.4656 8.59673 9.8297 8.33334 9.16666 8.33334H5.83333ZM9.99999 10.8333C9.99999 11.0544 9.91219 11.2663 9.75591 11.4226C9.59963 11.5789 9.38767 11.6667 9.16666 11.6667H5.83333C5.61231 11.6667 5.40035 11.5789 5.24407 11.4226C5.08779 11.2663 4.99999 11.0544 4.99999 10.8333C4.99999 10.6123 5.08779 10.4004 5.24407 10.2441C5.40035 10.0878 5.61231 10 5.83333 10H9.16666C9.38767 10 9.59963 10.0878 9.75591 10.2441C9.91219 10.4004 9.99999 10.6123 9.99999 10.8333ZM11.6667 15.8333C11.6667 16.0543 11.5789 16.2663 11.4226 16.4226C11.2663 16.5789 11.0543 16.6667 10.8333 16.6667H4.16666C3.94565 16.6667 3.73369 16.5789 3.57741 16.4226C3.42113 16.2663 3.33333 16.0543 3.33333 15.8333C3.33333 15.6123 3.42113 15.4004 3.57741 15.2441C3.73369 15.0878 3.94565 15 4.16666 15H10.8333C11.0543 15 11.2663 15.0878 11.4226 15.2441C11.5789 15.4004 11.6667 15.6123 11.6667 15.8333ZM13.78 2.60084L12.3983 1.22085C12.0124 0.832721 11.5533 0.524981 11.0477 0.315427C10.542 0.105874 9.99984 -0.00133165 9.45249 1.24843e-05H4.16666C3.062 0.0013357 2.00296 0.440747 1.22185 1.22186C0.440734 2.00298 0.00132321 3.06201 0 4.16668V15.8333C0.00132321 16.938 0.440734 17.997 1.22185 18.7782C2.00296 19.5593 3.062 19.9987 4.16666 20H10.8333C11.938 19.9987 12.997 19.5593 13.7781 18.7782C14.5592 17.997 14.9987 16.938 15 15.8333V5.54751C15.0015 5.00008 14.8945 4.45778 14.6851 3.95198C14.4757 3.44619 14.1681 2.98695 13.78 2.60084ZM12.6017 3.77918C12.7189 3.89787 12.8244 4.02764 12.9167 4.16668H10.8333V2.08334C10.9726 2.17462 11.1021 2.27989 11.22 2.39751L12.6017 3.77918ZM13.3333 15.8333C13.3333 16.4964 13.0699 17.1323 12.6011 17.6011C12.1322 18.0699 11.4964 18.3333 10.8333 18.3333H4.16666C3.50362 18.3333 2.86774 18.0699 2.3989 17.6011C1.93006 17.1323 1.66666 16.4964 1.66666 15.8333V4.16668C1.66666 3.50364 1.93006 2.86775 2.3989 2.39891C2.86774 1.93007 3.50362 1.66668 4.16666 1.66668H9.16666V4.16668C9.16666 4.6087 9.34225 5.03263 9.65481 5.34519C9.96737 5.65775 10.3913 5.83334 10.8333 5.83334H13.3333V15.8333Z" fill="#8231D3"/>
</svg>
