<svg width="20" height="19" viewBox="0 0 20 19" fill="none" xmlns="http://www.w3.org/2000/svg">
<path d="M19.9133 8.71029C19.5859 6.19024 18.3113 3.8894 16.3484 2.27543C14.3855 0.661467 11.8817 -0.144508 9.34586 0.0213273C6.81005 0.187163 4.43254 1.31236 2.69657 3.16823C0.960592 5.02409 -0.00356625 7.47134 6.1701e-05 10.0126C-0.00474114 11.3728 0.270897 12.7193 0.809768 13.9683C1.34864 15.2172 2.13917 16.3416 3.13202 17.2713C3.89134 17.9743 4.89185 18.3585 5.92654 18.3445H14.0643C15.1574 18.347 16.2076 17.9193 16.988 17.1538C18.1 16.0719 18.9437 14.7449 19.4516 13.2789C19.9596 11.8128 20.1177 10.2483 19.9133 8.71029ZM15.8232 15.959C15.3544 16.4209 14.7224 16.6793 14.0643 16.6781H5.92654C5.31771 16.6906 4.72716 16.4697 4.27599 16.0607C3.44886 15.2859 2.79027 14.349 2.34129 13.3084C1.89231 12.2678 1.66258 11.1459 1.66644 10.0126C1.66726 8.83964 1.91538 7.68006 2.3946 6.60949C2.87382 5.53892 3.57338 4.58143 4.44763 3.79947C5.96665 2.42963 7.94123 1.67431 9.98668 1.68067C10.3135 1.68081 10.6401 1.69916 10.9648 1.73566C12.5276 1.91716 14.0069 2.53766 15.2316 3.52529C16.4562 4.51292 17.3759 5.82727 17.8843 7.3161C18.3927 8.80494 18.469 10.4073 18.1042 11.9377C17.7394 13.4681 16.9485 14.8638 15.8232 15.9632V15.959ZM6.50478 13.5828C6.66277 13.7375 6.75285 13.9486 6.7552 14.1697C6.75754 14.3908 6.67196 14.6038 6.51727 14.7618C6.36259 14.9197 6.15148 15.0098 5.93038 15.0122C5.70928 15.0145 5.49631 14.9289 5.33831 14.7742C4.39261 13.8479 3.74416 12.6609 3.47564 11.3646C3.20711 10.0683 3.33067 8.72141 3.83056 7.4956C4.33044 6.26979 5.18402 5.22059 6.28248 4.48175C7.38094 3.74291 8.67452 3.34789 9.99834 3.34705C10.317 3.34696 10.6352 3.36951 10.9507 3.41454C11.059 3.43016 11.1632 3.46697 11.2573 3.52287C11.3514 3.57877 11.4336 3.65266 11.4991 3.74032C11.5647 3.82799 11.6123 3.92771 11.6393 4.03379C11.6662 4.13986 11.6721 4.25022 11.6564 4.35854C11.642 4.46746 11.6061 4.57242 11.5505 4.66723C11.495 4.76204 11.4211 4.84479 11.3332 4.91062C11.2452 4.97645 11.145 5.02403 11.0384 5.05056C10.9318 5.07708 10.8209 5.08202 10.7124 5.06509C9.66964 4.91615 8.60648 5.10038 7.67465 5.5915C6.74282 6.08262 5.98992 6.85552 5.52341 7.79991C5.0569 8.7443 4.9006 9.81192 5.07684 10.8504C5.25307 11.8889 5.75282 12.8452 6.50478 13.5828ZM16.5964 9.06023C16.6414 9.37568 16.664 9.69392 16.6639 10.0126C16.6666 10.9005 16.4903 11.7798 16.1456 12.5981C15.8009 13.4164 15.2948 14.1568 14.6575 14.7751C14.4993 14.9298 14.2861 15.0153 14.0649 15.0128C13.8436 15.0103 13.6324 14.92 13.4777 14.7618C13.3231 14.6035 13.2376 14.3903 13.2401 14.1691C13.2426 13.9478 13.3329 13.7366 13.4911 13.582C14.054 13.0332 14.4791 12.3591 14.7317 11.6146C14.9842 10.8702 15.057 10.0765 14.9442 9.29852C14.9126 9.07965 14.9692 8.85718 15.1016 8.68007C15.234 8.50296 15.4314 8.3857 15.6503 8.3541C15.8692 8.3225 16.0916 8.37915 16.2687 8.51157C16.4459 8.644 16.5631 8.84136 16.5947 9.06023H16.5964ZM11.6031 9.58597C11.7033 9.94654 11.6814 10.3302 11.5406 10.6769C11.3998 11.0237 11.1482 11.3141 10.825 11.5027C10.5017 11.6914 10.1251 11.7677 9.75398 11.7197C9.38282 11.6717 9.038 11.5022 8.77336 11.2375C8.50873 10.9729 8.33919 10.6281 8.29121 10.2569C8.24324 9.88577 8.31954 9.50917 8.50819 9.18595C8.69684 8.86273 8.98722 8.61108 9.33398 8.47031C9.68075 8.32954 10.0644 8.30758 10.4249 8.40784L13.5752 5.25755C13.6521 5.17798 13.744 5.1145 13.8457 5.07083C13.9473 5.02717 14.0567 5.00418 14.1673 5.00322C14.2779 5.00226 14.3876 5.02334 14.49 5.06523C14.5924 5.10713 14.6855 5.169 14.7637 5.24723C14.8419 5.32546 14.9038 5.41848 14.9457 5.52088C14.9876 5.62328 15.0086 5.73299 15.0077 5.84362C15.0067 5.95425 14.9837 6.06358 14.9401 6.16523C14.8964 6.26689 14.8329 6.35882 14.7534 6.43568L11.6031 9.58597Z" fill="#8231D3"/>
</svg>
