<svg width="12" height="12" viewBox="0 0 12 12" fill="none" xmlns="http://www.w3.org/2000/svg">
<path id="Vector" d="M0.295797 6.7101L5.2958 11.7101C5.3909 11.8011 5.50304 11.8725 5.6258 11.9201C5.86926 12.0201 6.14233 12.0201 6.3858 11.9201C6.50855 11.8725 6.62069 11.8011 6.7158 11.7101L11.7158 6.7101C11.809 6.61687 11.883 6.50618 11.9335 6.38435C11.9839 6.26253 12.0099 6.13196 12.0099 6.0001C12.0099 5.7338 11.9041 5.47841 11.7158 5.2901C11.5275 5.1018 11.2721 4.99601 11.0058 4.99601C10.7395 4.99601 10.4841 5.1018 10.2958 5.2901L7.0058 8.5901L7.0058 1.0001C7.0058 0.734887 6.90044 0.480533 6.7129 0.292996C6.52537 0.10546 6.27101 0.000103951 6.0058 0.000103951C5.74058 0.000103951 5.48623 0.10546 5.29869 0.292996C5.11115 0.480533 5.0058 0.734887 5.0058 1.0001L5.0058 8.5901L1.7158 5.2901C1.62283 5.19637 1.51223 5.12198 1.39037 5.07121C1.26851 5.02044 1.13781 4.99431 1.0058 4.99431C0.873785 4.99431 0.743079 5.02044 0.62122 5.07121C0.49936 5.12198 0.388761 5.19637 0.295797 5.2901C0.202069 5.38307 0.127673 5.49367 0.0769043 5.61553C0.0261354 5.73739 -1.90735e-06 5.86809 -1.90735e-06 6.0001C-1.90735e-06 6.13212 0.0261354 6.26282 0.0769043 6.38468C0.127673 6.50654 0.202069 6.61714 0.295797 6.7101Z" fill="#FF1414"/>
</svg>
