<svg width="20" height="20" viewBox="0 0 20 20" fill="none" xmlns="http://www.w3.org/2000/svg">
<path d="M8.23169 15.1017C8.46386 15.334 8.73953 15.5183 9.04295 15.644C9.34637 15.7698 9.67159 15.8345 10 15.8345C10.3285 15.8345 10.6537 15.7698 10.9571 15.644C11.2605 15.5183 11.5362 15.334 11.7684 15.1017L14.4442 12.4258C14.5877 12.2672 14.6646 12.0594 14.6591 11.8455C14.6536 11.6317 14.5661 11.4282 14.4147 11.2771C14.2633 11.126 14.0595 11.0389 13.8457 11.0338C13.6318 11.0288 13.4242 11.1062 13.2659 11.25L10.8275 13.6892L10.8334 0.833333C10.8334 0.61232 10.7456 0.400358 10.5893 0.244078C10.433 0.0877974 10.221 0 10 0C9.77901 0 9.56705 0.0877974 9.41077 0.244078C9.25449 0.400358 9.16669 0.61232 9.16669 0.833333L9.15919 13.6733L6.73419 11.25C6.57783 11.0937 6.36579 11.006 6.14473 11.0061C5.92367 11.0062 5.7117 11.0941 5.55544 11.2504C5.39919 11.4068 5.31145 11.6188 5.31152 11.8399C5.3116 12.0609 5.39949 12.2729 5.55586 12.4292L8.23169 15.1017Z" fill="#8D0DDC"/>
<path d="M19.1667 13.3333C18.9457 13.3333 18.7337 13.421 18.5774 13.5773C18.4211 13.7336 18.3333 13.9456 18.3333 14.1666V17.4999C18.3333 17.7209 18.2455 17.9329 18.0893 18.0892C17.933 18.2455 17.721 18.3333 17.5 18.3333H2.5C2.27899 18.3333 2.06702 18.2455 1.91074 18.0892C1.75446 17.9329 1.66667 17.7209 1.66667 17.4999V14.1666C1.66667 13.9456 1.57887 13.7336 1.42259 13.5773C1.26631 13.421 1.05435 13.3333 0.833333 13.3333C0.61232 13.3333 0.400358 13.421 0.244078 13.5773C0.0877974 13.7336 0 13.9456 0 14.1666L0 17.4999C0 18.163 0.263392 18.7988 0.732233 19.2677C1.20107 19.7365 1.83696 19.9999 2.5 19.9999H17.5C18.163 19.9999 18.7989 19.7365 19.2678 19.2677C19.7366 18.7988 20 18.163 20 17.4999V14.1666C20 13.9456 19.9122 13.7336 19.7559 13.5773C19.5996 13.421 19.3877 13.3333 19.1667 13.3333Z" fill="#8D0DDC"/>
</svg>
