<svg width="20" height="20" viewBox="0 0 20 20" fill="none" xmlns="http://www.w3.org/2000/svg">
<path d="M11.0126 3.55665C11.0126 4.67927 11.022 5.80188 11.0126 6.91515C11.0033 7.7384 10.3671 8.1968 9.62809 7.9255C9.14162 7.74776 9.00129 7.35484 9.00129 6.87773C9.00129 5.91415 9.00129 4.94121 9.00129 3.97763C9.00129 3.82795 8.99194 3.67826 8.97323 3.41632C8.54289 3.85601 8.18739 4.22086 7.82254 4.57636C7.2893 5.1096 6.7467 5.14702 6.30701 4.69798C5.87667 4.25828 5.91409 3.72504 6.40991 3.21986C7.35478 2.24692 8.30901 1.27399 9.26324 0.310407C9.6468 -0.0825097 10.311 -0.110575 10.7039 0.272986C11.7143 1.28334 12.7246 2.30306 13.7163 3.34148C14.0999 3.74375 14.0905 4.25828 13.735 4.6512C13.3982 5.03476 12.8837 5.12831 12.4721 4.84766C12.2943 4.72604 12.1446 4.55765 11.9949 4.40797C11.7049 4.1086 11.4149 3.80924 11.1249 3.50052C11.0875 3.51923 11.0501 3.53794 11.0126 3.55665Z" fill="#8231D3"/>
<path d="M8.99199 16.4386C8.99199 15.5125 8.99199 14.577 8.99199 13.6508C8.99199 13.4356 8.98263 13.2111 8.99199 12.996C9.02941 12.3598 9.40361 11.9856 9.99299 11.9856C10.5824 11.9856 10.9753 12.3598 10.994 12.9866C11.0221 13.9408 11.0033 14.8857 11.0033 15.8399C11.0033 16.0364 11.0033 16.2328 11.0033 16.5603C11.4992 16.0738 11.9014 15.6528 12.3318 15.2599C12.7341 14.895 13.2579 14.9044 13.6415 15.2599C14.0157 15.5967 14.0905 16.1112 13.8099 16.5228C13.7257 16.6538 13.6041 16.7567 13.5012 16.869C12.5844 17.8045 11.6676 18.7307 10.7508 19.6662C10.3485 20.0778 9.67491 20.1059 9.282 19.7036C8.29035 18.712 7.30806 17.711 6.33512 16.7006C5.94221 16.2983 5.90479 15.8306 6.1948 15.4283C6.55965 14.9044 7.21451 14.8296 7.69162 15.2786C8.10325 15.6622 8.4681 16.0832 8.86102 16.4854C8.90779 16.4761 8.94521 16.4574 8.99199 16.4386Z" fill="#8231D3"/>
<path d="M3.566 8.99211C4.68862 8.99211 5.81124 8.98275 6.9245 8.99211C7.74776 9.00146 8.20616 9.63761 7.93486 10.3767C7.75711 10.8631 7.3642 11.0035 6.88708 11.0035C5.9235 11.0035 4.95057 11.0035 3.98698 11.0035C3.8373 11.0035 3.68762 11.0128 3.42567 11.0315C3.86537 11.4619 4.23022 11.8174 4.58571 12.1822C5.1096 12.7061 5.13767 13.2581 4.68862 13.6978C4.24893 14.1281 3.71568 14.0907 3.21051 13.5948C2.23757 12.65 1.27399 11.6957 0.310407 10.7415C-0.0825097 10.358 -0.110575 9.69374 0.272986 9.30083C1.28334 8.29047 2.30306 7.28011 3.34148 6.28847C3.74375 5.9049 4.25828 5.91426 4.6512 6.26976C5.03476 6.60654 5.12831 7.12108 4.84766 7.5327C4.72604 7.71045 4.55765 7.86013 4.40797 8.00982C4.1086 8.29982 3.80924 8.58984 3.50052 8.87985C3.52858 8.90791 3.54729 8.94533 3.566 8.99211Z" fill="#8231D3"/>
<path d="M16.448 11.0033C15.5219 11.0033 14.5864 11.0033 13.6602 11.0033C13.445 11.0033 13.2205 11.0127 13.0054 11.0033C12.3692 10.9659 11.995 10.5917 11.995 10.0023C11.995 9.41296 12.3692 9.02004 12.996 9.00133C13.9502 8.97326 14.8951 8.99197 15.8493 8.99197C16.0458 8.99197 16.2422 8.99197 16.5697 8.99197C16.0832 8.49615 15.6622 8.09388 15.2693 7.66354C14.9044 7.26127 14.9138 6.73738 15.2693 6.35382C15.6061 5.97961 16.1206 5.90477 16.5322 6.18543C16.6632 6.26962 16.7661 6.39124 16.8784 6.49415C17.8139 7.41095 18.7401 8.32776 19.6756 9.24456C20.0872 9.64684 20.1153 10.3204 19.713 10.7133C18.7214 11.705 17.7204 12.6873 16.71 13.6602C16.3077 14.0531 15.84 14.0905 15.4377 13.8005C14.9138 13.4357 14.839 12.7808 15.288 12.3037C15.6716 11.8921 16.0926 11.5272 16.4948 11.1343C16.4855 11.0969 16.4668 11.0501 16.448 11.0033Z" fill="#8231D3"/>
</svg>
