<svg width="11" height="7" viewBox="0 0 11 7" fill="none" xmlns="http://www.w3.org/2000/svg">
<path d="M5.95004 5.95079L10.19 1.71079C10.2838 1.61783 10.3582 1.50723 10.4089 1.38537C10.4597 1.26351 10.4858 1.1328 10.4858 1.00079C10.4858 0.868781 10.4597 0.738075 10.4089 0.616216C10.3582 0.494356 10.2838 0.383755 10.19 0.290792C10.0027 0.104542 9.74923 0 9.48504 0C9.22086 0 8.9674 0.104542 8.78004 0.290792L5.24004 3.83079L1.70004 0.290792C1.51268 0.104542 1.25923 0 0.995041 0C0.730855 0 0.477404 0.104542 0.290041 0.290792C0.19736 0.384233 0.124035 0.495049 0.0742702 0.616886C0.0245056 0.738724 -0.00071907 0.869186 4.19617e-05 1.00079C-0.00071907 1.1324 0.0245056 1.26286 0.0742702 1.3847C0.124035 1.50654 0.19736 1.61735 0.290041 1.71079L4.53004 5.95079C4.623 6.04452 4.73361 6.11891 4.85546 6.16968C4.97732 6.22045 5.10803 6.24659 5.24004 6.24659C5.37205 6.24659 5.50276 6.22045 5.62462 6.16968C5.74648 6.11891 5.85708 6.04452 5.95004 5.95079Z" fill="#797979"/>
</svg>
