<svg width="10" height="10" viewBox="0 0 10 10" fill="none" xmlns="http://www.w3.org/2000/svg">
<path d="M7.91667 0H2.08333C1.531 0.000661607 1.00148 0.220367 0.610925 0.610925C0.220367 1.00148 0.000661607 1.531 0 2.08333L0 7.08333C0.000661607 7.63566 0.220367 8.16519 0.610925 8.55574C1.00148 8.9463 1.531 9.16601 2.08333 9.16667H7.91667C8.469 9.16601 8.99852 8.9463 9.38908 8.55574C9.77963 8.16519 9.99934 7.63566 10 7.08333V2.08333C9.99934 1.531 9.77963 1.00148 9.38908 0.610925C8.99852 0.220367 8.469 0.000661607 7.91667 0ZM2.08333 0.833333H7.91667C8.16616 0.833824 8.4098 0.908965 8.61623 1.04909C8.82266 1.18921 8.98244 1.38789 9.075 1.61958L5.88417 4.81083C5.64935 5.04471 5.33142 5.17603 5 5.17603C4.66858 5.17603 4.35065 5.04471 4.11583 4.81083L0.925 1.61958C1.01756 1.38789 1.17734 1.18921 1.38377 1.04909C1.5902 0.908965 1.83384 0.833824 2.08333 0.833333ZM7.91667 8.33333H2.08333C1.75181 8.33333 1.43387 8.20164 1.19945 7.96722C0.965029 7.7328 0.833333 7.41485 0.833333 7.08333V2.70833L3.52667 5.4C3.91776 5.79011 4.44761 6.00918 5 6.00918C5.55239 6.00918 6.08224 5.79011 6.47333 5.4L9.16667 2.70833V7.08333C9.16667 7.41485 9.03497 7.7328 8.80055 7.96722C8.56613 8.20164 8.24819 8.33333 7.91667 8.33333Z" fill="#8231D3"/>
</svg>
