<svg width="25" height="21" viewBox="0 0 25 21" fill="none" xmlns="http://www.w3.org/2000/svg">
<g clip-path="url(#clip0_174_61)">
<path d="M12.4855 0C15.6019 0 18.7184 0 21.8349 0C23.7145 0 24.9416 1.23685 24.9416 3.10674C24.9416 3.8469 25.1364 4.70393 24.8442 5.30775C24.5521 5.89209 23.7437 6.22322 23.1594 6.66147C20.2669 8.81379 17.3842 10.9661 14.4917 13.1087C13.0698 14.1605 11.8816 14.1605 10.45 13.0989C7.09006 10.6058 3.73011 8.10284 0.370154 5.60966C0.107201 5.41488 -0.00966651 5.2201 7.24805e-05 4.88898C0.0292895 4.27542 0.00981147 3.65212 0.00981147 3.03857C0.0195505 1.26607 1.26614 0.009739 3.03864 0C6.18433 0 9.33977 0 12.4855 0ZM12.4855 1.9478C9.3982 1.9478 6.32068 1.9478 3.23342 1.9478C2.26926 1.9478 1.96735 2.25945 1.95761 3.24309C1.95761 3.46708 1.97709 3.70082 1.95761 3.92481C1.92839 4.23646 2.03552 4.4215 2.28874 4.60654C5.40521 6.91469 8.51195 9.23257 11.6284 11.5407C12.3296 12.0569 12.6315 12.0569 13.323 11.5504C16.235 9.37865 19.1372 7.18738 22.0881 5.06428C22.7796 4.56759 23.101 4.0709 23.0231 3.20413C22.9354 2.27892 22.6822 1.9478 21.7472 1.9478C18.6502 1.9478 15.563 1.9478 12.4855 1.9478Z" fill="#8231D3"/>
<path d="M0.00976562 7.76221C0.662278 8.24916 1.23688 8.63872 1.77252 9.08671C1.89913 9.19384 1.95756 9.44705 1.95756 9.63209C1.9673 12.1155 1.9673 14.599 1.9673 17.0824C1.9673 17.9784 2.29843 18.3095 3.20416 18.3095C9.38842 18.3095 15.5727 18.3095 21.7569 18.3095C22.6821 18.3095 23.0035 17.9784 23.0035 17.0435C23.0035 14.5795 23.0133 12.1058 22.9938 9.64183C22.9938 9.33992 23.0717 9.13541 23.3347 8.9601C23.8606 8.6095 24.3573 8.2102 24.9124 7.80116C24.9319 7.96673 24.9513 8.08359 24.9513 8.20046C24.9513 11.2196 24.9611 14.2386 24.9513 17.2577C24.9513 19.001 23.6853 20.2573 21.9322 20.2573C15.6311 20.2573 9.33972 20.2573 3.03859 20.2573C1.28557 20.2573 0.0195046 18.9913 0.0195046 17.2577C0.00976562 14.2386 0.0195046 11.2196 0.0195046 8.20046C0.00976562 8.09333 0.00976562 7.97646 0.00976562 7.76221Z" fill="#8231D3"/>
</g>
<defs>
<clipPath id="clip0_174_61">
<rect width="25" height="20.2571" fill="white"/>
</clipPath>
</defs>
</svg>
