<svg width="40" height="40" viewBox="0 0 40 40" fill="none" xmlns="http://www.w3.org/2000/svg">
<path d="M25.8333 11H14.1667C13.062 11.0013 12.003 11.4407 11.2218 12.2218C10.4407 13.003 10.0013 14.062 10 15.1667V25.1667C10.0013 26.2713 10.4407 27.3304 11.2218 28.1115C12.003 28.8926 13.062 29.332 14.1667 29.3333H25.8333C26.938 29.332 27.997 28.8926 28.7782 28.1115C29.5593 27.3304 29.9987 26.2713 30 25.1667V15.1667C29.9987 14.062 29.5593 13.003 28.7782 12.2218C27.997 11.4407 26.938 11.0013 25.8333 11ZM14.1667 12.6667H25.8333C26.3323 12.6676 26.8196 12.8179 27.2325 13.0982C27.6453 13.3784 27.9649 13.7758 28.15 14.2392L21.7683 20.6217C21.2987 21.0894 20.6628 21.3521 20 21.3521C19.3372 21.3521 18.7013 21.0894 18.2317 20.6217L11.85 14.2392C12.0351 13.7758 12.3547 13.3784 12.7675 13.0982C13.1804 12.8179 13.6677 12.6676 14.1667 12.6667ZM25.8333 27.6667H14.1667C13.5036 27.6667 12.8677 27.4033 12.3989 26.9344C11.9301 26.4656 11.6667 25.8297 11.6667 25.1667V16.4167L17.0533 21.8C17.8355 22.5802 18.8952 23.0184 20 23.0184C21.1048 23.0184 22.1645 22.5802 22.9467 21.8L28.3333 16.4167V25.1667C28.3333 25.8297 28.0699 26.4656 27.6011 26.9344C27.1323 27.4033 26.4964 27.6667 25.8333 27.6667Z" fill="#606060"/>
<circle cx="20" cy="20" r="19.5" stroke="#D9D9D9"/>
</svg>
