<svg width="20" height="20" viewBox="0 0 20 20" fill="none" xmlns="http://www.w3.org/2000/svg">
<path d="M0.00409296 2.81369C0.11051 2.47398 0.175997 2.11789 0.327436 1.79864C0.781755 0.857259 1.48574 0.206479 2.554 0.0263888C2.67679 0.00592401 2.79958 0.00183105 2.92237 0.00183105C5.46 0.00183105 8.00173 0.00183105 10.5394 0.00183105C10.5885 0.00183105 10.6417 0.00183105 10.7031 0.00183105C10.7031 0.480707 10.7031 0.947304 10.7031 1.43027C10.6089 1.43027 10.5271 1.43027 10.4452 1.43027C7.96489 1.43027 5.48456 1.43437 3.00423 1.43027C2.36573 1.43027 1.87048 1.66766 1.59216 2.24886C1.49393 2.4576 1.44481 2.71137 1.44072 2.94467C1.42435 7.67612 1.41616 12.4117 1.41207 17.1431C1.41207 17.9945 2.01373 18.5961 2.86507 18.5961C7.59653 18.592 12.3321 18.5839 17.0635 18.5716C17.9844 18.5675 18.5738 17.9576 18.5738 17.0244C18.5779 14.5359 18.5738 12.0515 18.5738 9.56298C18.5738 9.48112 18.5738 9.39516 18.5738 9.30103C19.0568 9.30103 19.5152 9.30103 20.0023 9.30103C20.0023 9.3747 20.0023 9.44837 20.0023 9.52614C20.0023 11.9819 19.99 14.4336 20.0064 16.8894C20.0146 18.2319 19.3433 19.1077 18.2014 19.6767C17.8862 19.8322 17.526 19.8936 17.1904 20C12.2952 20 7.39597 20 2.5008 20C2.46396 19.9877 2.42712 19.9714 2.39029 19.9632C1.53077 19.824 0.875892 19.3779 0.409296 18.6452C0.184183 18.2933 0.0859521 17.8962 0 17.4992C0.00409296 12.604 0.00409296 7.70887 0.00409296 2.81369Z" fill="#606060"/>
<path d="M17.3787 1.4098C17.1986 1.4098 17.0185 1.4098 16.8384 1.4098C16.0199 1.41798 15.1972 1.42617 14.3786 1.43026C13.8833 1.43026 13.5518 1.1151 13.5845 0.673064C13.6091 0.288326 13.9079 0.010005 14.3131 0.00181909C14.8124 -0.00227386 15.3159 0.00181909 15.8152 0.00181909C16.9285 0.00181909 18.0418 0.00181909 19.1551 0.00181909C19.7444 0.00181909 20.0064 0.267861 20.0064 0.86134C20.0064 2.45759 20.0064 4.04975 20.0064 5.646C20.0064 6.15762 19.6462 6.48506 19.1714 6.41548C18.8808 6.37046 18.6434 6.14535 18.5984 5.85475C18.582 5.75242 18.578 5.646 18.578 5.54368C18.578 4.48361 18.578 3.42353 18.578 2.29797C18.4879 2.37983 18.4347 2.42076 18.3897 2.46578C14.8697 5.81382 11.358 9.16595 7.83804 12.514C7.69069 12.6531 7.5106 12.7841 7.32233 12.8414C6.99489 12.9437 6.66336 12.7677 6.51601 12.4812C6.36867 12.1906 6.42597 11.9 6.7002 11.6381C8.27599 10.1319 9.85587 8.62568 11.4357 7.11947C13.3799 5.26536 15.3281 3.40716 17.2723 1.55305C17.3132 1.51621 17.3583 1.48347 17.4033 1.44663C17.3951 1.43435 17.3869 1.42207 17.3787 1.4098Z" fill="#606060"/>
</svg>
