<svg width="27" height="27" viewBox="0 0 27 27" fill="none" xmlns="http://www.w3.org/2000/svg">
<path d="M13.5 9C14.432 9 15.1875 8.24448 15.1875 7.3125C15.1875 6.38052 14.432 5.625 13.5 5.625C12.568 5.625 11.8125 6.38052 11.8125 7.3125C11.8125 8.24448 12.568 9 13.5 9Z" fill="black"/>
<path d="M13.5 0C10.83 0 8.21987 0.791761 5.99981 2.27516C3.77974 3.75856 2.04941 5.86697 1.02763 8.33377C0.00584936 10.8006 -0.261496 13.515 0.259405 16.1337C0.780305 18.7525 2.06606 21.1579 3.95406 23.0459C5.84207 24.9339 8.24754 26.2197 10.8663 26.7406C13.485 27.2615 16.1994 26.9942 18.6662 25.9724C21.133 24.9506 23.2414 23.2203 24.7248 21.0002C26.2082 18.7801 27 16.17 27 13.5C26.9961 9.92076 25.5726 6.48924 23.0417 3.95833C20.5108 1.42743 17.0792 0.00387122 13.5 0ZM13.5 24.75C11.275 24.75 9.09989 24.0902 7.24984 22.854C5.39979 21.6179 3.95785 19.8609 3.10636 17.8052C2.25488 15.7495 2.03209 13.4875 2.46617 11.3052C2.90025 9.12295 3.97171 7.11839 5.54505 5.54505C7.11839 3.97171 9.12295 2.90025 11.3052 2.46617C13.4875 2.03208 15.7495 2.25487 17.8052 3.10635C19.8609 3.95784 21.6179 5.39978 22.854 7.24983C24.0902 9.09989 24.75 11.275 24.75 13.5C24.7467 16.4827 23.5604 19.3423 21.4513 21.4513C19.3423 23.5604 16.4827 24.7467 13.5 24.75Z" fill="black"/>
<path d="M13.5 11.25H12.375C12.0766 11.25 11.7905 11.3685 11.5795 11.5795C11.3685 11.7905 11.25 12.0766 11.25 12.375C11.25 12.6734 11.3685 12.9595 11.5795 13.1705C11.7905 13.3815 12.0766 13.5 12.375 13.5H13.5V20.25C13.5 20.5484 13.6185 20.8345 13.8295 21.0455C14.0405 21.2565 14.3266 21.375 14.625 21.375C14.9234 21.375 15.2095 21.2565 15.4205 21.0455C15.6315 20.8345 15.75 20.5484 15.75 20.25V13.5C15.75 12.9033 15.5129 12.331 15.091 11.909C14.669 11.4871 14.0967 11.25 13.5 11.25Z" fill="black"/>
</svg>
