<svg width="40" height="40" viewBox="0 0 40 40" fill="none" xmlns="http://www.w3.org/2000/svg">
<path d="M16.5276 23.4756C16.3359 23.2839 16.1558 23.0739 15.9933 22.8522C15.7224 22.4804 15.8041 21.9587 16.1767 21.6878C16.5484 21.417 17.0693 21.4986 17.341 21.8704C17.4485 22.0187 17.5694 22.1612 17.7052 22.2962C18.3745 22.9655 19.2638 23.3339 20.2097 23.3339C21.1557 23.3339 22.0458 22.9655 22.7142 22.2962L27.2982 17.7123C28.6792 16.3313 28.6792 14.0835 27.2982 12.7024C25.9172 11.3214 23.6693 11.3214 22.2883 12.7024L21.4065 13.5842C21.0807 13.9101 20.5539 13.9101 20.2281 13.5842C19.9022 13.2584 19.9022 12.7316 20.2281 12.4057L21.1098 11.524C23.1409 9.49201 26.4456 9.49201 28.4767 11.524C30.5078 13.5551 30.5078 16.8597 28.4767 18.8908L23.8927 23.4747C22.9092 24.459 21.6007 25.0008 20.2097 25.0008C18.8187 25.0008 17.5102 24.459 16.5276 23.4756ZM15.209 30.0015C16.6009 30.0015 17.9086 29.4597 18.892 28.4754L19.7738 27.5936C20.0997 27.2686 20.0997 26.741 19.7738 26.4151C19.4488 26.0893 18.9212 26.0901 18.5953 26.4151L17.7127 27.2969C17.0435 27.9662 16.1542 28.3346 15.2082 28.3346C14.2622 28.3346 13.373 27.9662 12.7037 27.2969C12.0344 26.6277 11.6661 25.7384 11.6661 24.7924C11.6661 23.8465 12.0344 22.9563 12.7037 22.2879L17.2877 17.704C17.9569 17.0347 18.8462 16.6663 19.7922 16.6663C20.7381 16.6663 21.6282 17.0347 22.2967 17.704C22.43 17.8381 22.5517 17.9807 22.66 18.129C22.9301 18.5016 23.451 18.5849 23.8244 18.3132C24.1969 18.0423 24.2794 17.5214 24.0086 17.1489C23.8502 16.9305 23.671 16.7213 23.476 16.5263C22.4917 15.5412 21.1832 14.9994 19.7922 14.9994C18.4011 14.9994 17.0926 15.5412 16.1092 16.5255L11.526 21.1094C10.5417 22.0929 10 23.4014 10 24.7924C10 26.1834 10.5417 27.492 11.526 28.4754C12.5095 29.4597 13.8172 30.0015 15.209 30.0015Z" fill="#606060"/>
<circle cx="20" cy="20" r="19.5" stroke="#D9D9D9"/>
</svg>
