<svg width="24" height="24" viewBox="0 0 24 24" fill="none" xmlns="http://www.w3.org/2000/svg">
<g clip-path="url(#clip0_174_68)">
<path d="M12.0098 0C18.7829 0.0399003 24.2193 5.66583 23.9699 12.4289C23.94 13.207 23.7604 13.9751 23.6706 14.7431C23.6507 14.8828 23.6906 15.0623 23.7704 15.1721C24.1694 15.7107 24.0597 16.1995 23.4312 16.5087C22.0447 17.1771 20.6482 17.8454 19.2517 18.4938C18.9026 18.6534 18.6731 18.8728 18.5036 19.2319C17.8751 20.6085 17.2168 21.9651 16.5684 23.3317C16.2093 24.0898 15.8302 24.1796 15.122 23.7207C15.0023 23.6409 14.7829 23.6708 14.6233 23.7007C10.6831 24.5087 7.11203 23.6708 4.13946 20.9875C0.418764 17.6259 -0.858044 13.3965 0.578365 8.5985C1.99482 3.8404 5.35642 1.07731 10.2243 0.159601C10.8128 0.0498753 11.4113 0.0498753 12.0098 0ZM12.2093 15.182C12.1594 15.0025 12.1095 14.8429 12.0597 14.6933C11.8003 13.9052 11.5011 13.1272 11.2916 12.3292C11.2218 12.0698 11.2916 11.6608 11.4612 11.4813C11.6307 11.3017 12.0198 11.3117 12.309 11.2718C12.4088 11.2618 12.5285 11.3416 12.6382 11.3716C13.8751 11.7805 15.122 12.1995 16.4387 12.6384C16.4387 12.399 16.4487 12.2195 16.4387 12.0499C16.3988 11.1421 16.339 10.2244 16.309 9.31671C16.2991 8.93766 16.1794 8.81796 15.7804 8.81796C13.2567 8.8379 10.733 8.82793 8.19931 8.82793C8.05966 8.82793 7.91004 8.84788 7.78036 8.85786C7.48111 10.6334 7.51103 14.3242 7.83024 15.192C9.28659 15.182 10.723 15.182 12.2093 15.182ZM15.9799 7.19202C15.6607 5.43641 15.1719 3.75062 14.5235 2.11471C14.4836 2.00499 14.314 1.88529 14.1943 1.87531C13.107 1.79551 12.0098 1.63591 10.9325 1.70574C9.526 1.79551 9.49607 1.86534 9.07712 3.19202C8.66814 4.49875 8.32899 5.82544 7.93996 7.18204C10.7031 7.19202 13.3165 7.19202 15.9799 7.19202ZM14.5135 22.0549C13.9449 20.3591 13.3963 18.6933 12.8178 17.0274C12.7779 16.9177 12.5584 16.808 12.4088 16.808C11.6307 16.788 10.8427 16.798 10.0646 16.798C9.38635 16.798 8.71802 16.798 7.88011 16.798C8.41876 18.5436 8.92749 20.1895 9.4462 21.8354C9.4861 21.9451 9.62575 22.0748 9.74545 22.1047C11.3415 22.4838 12.9175 22.4638 14.5135 22.0549ZM6.05467 15.192C6.05467 13.0474 6.05467 10.9526 6.05467 8.8379C4.78784 8.8379 3.48111 8.8379 2.14445 8.8379C1.4861 10.8728 1.47612 12.9077 2.07462 14.9526C2.10455 15.0524 2.2442 15.182 2.33398 15.182C3.59083 15.202 4.84769 15.192 6.05467 15.192ZM13.2766 13.2668C14.1544 15.9002 14.9923 18.4239 15.8701 21.0374C15.9799 20.818 16.0597 20.6783 16.1295 20.5287C16.5185 19.7007 16.8876 18.8628 17.3165 18.0648C17.4761 17.7656 17.7554 17.4763 18.0547 17.3167C18.8826 16.8678 19.7604 16.4988 20.6083 16.0898C20.728 16.0299 20.8477 15.9501 21.0272 15.8504C18.4238 14.9825 15.91 14.1446 13.2766 13.2668ZM22.0646 14.5037C22.5634 12.5686 22.4736 10.6833 21.8751 8.84788C20.5085 8.84788 19.2118 8.84788 18.0247 8.84788C18.0247 10.2244 18.0148 11.5711 18.0347 12.9177C18.0347 13.0274 18.1544 13.197 18.2542 13.2269C19.511 13.6559 20.7679 14.0748 22.0646 14.5037ZM17.6756 7.18204C18.8128 7.18204 19.9599 7.18204 21.127 7.18204C20.5385 5.58603 17.8951 3.05237 16.5385 2.76309C16.9075 4.2394 17.2966 5.70574 17.6756 7.18204ZM2.86265 7.17207C4.03971 7.17207 5.19682 7.17207 6.3639 7.17207C6.53348 6.43392 6.6831 5.68579 6.87263 4.94763C7.06216 4.20948 7.29158 3.4813 7.51103 2.70324C5.79532 3.37157 3.72051 5.35661 2.86265 7.17207ZM2.83273 16.818C3.93996 18.8429 5.45617 20.3092 7.50106 21.3167C7.10206 19.7905 6.723 18.3242 6.33398 16.818C5.21677 16.818 4.05966 16.818 2.83273 16.818Z" fill="#8231D3"/>
</g>
<defs>
<clipPath id="clip0_174_68">
<rect width="24" height="23.98" fill="white"/>
</clipPath>
</defs>
</svg>
