<svg width="10" height="11" viewBox="0 0 10 11" fill="none" xmlns="http://www.w3.org/2000/svg">
<path d="M7.8285 7.82835L5.707 9.94985C5.61422 10.0427 5.50405 10.1164 5.38278 10.1667C5.26151 10.2169 5.13153 10.2428 5.00025 10.2428C4.86898 10.2428 4.73899 10.2169 4.61772 10.1667C4.49645 10.1164 4.38628 10.0427 4.2935 9.94985L2.1715 7.82835C1.61211 7.26894 1.23117 6.5562 1.07685 5.78029C0.922521 5.00437 1.00175 4.20011 1.3045 3.46922C1.60726 2.73833 2.11995 2.11362 2.77774 1.67411C3.43553 1.23459 4.20889 1 5 1C5.79112 1 6.56447 1.23459 7.22226 1.67411C7.88005 2.11362 8.39274 2.73833 8.6955 3.46922C8.99826 4.20011 9.07748 5.00437 8.92316 5.78029C8.76883 6.5562 8.38789 7.26894 7.8285 7.82835Z" stroke="#8231D3" stroke-linecap="round" stroke-linejoin="round"/>
<path d="M6.5 5C6.5 5.39782 6.34196 5.77936 6.06066 6.06066C5.77936 6.34196 5.39782 6.5 5 6.5C4.60218 6.5 4.22064 6.34196 3.93934 6.06066C3.65804 5.77936 3.5 5.39782 3.5 5C3.5 4.60218 3.65804 4.22064 3.93934 3.93934C4.22064 3.65804 4.60218 3.5 5 3.5C5.39782 3.5 5.77936 3.65804 6.06066 3.93934C6.34196 4.22064 6.5 4.60218 6.5 5Z" stroke="#8231D3" stroke-linecap="round" stroke-linejoin="round"/>
</svg>
