<svg width="18" height="20" viewBox="0 0 18 20" fill="none" xmlns="http://www.w3.org/2000/svg">
<g clip-path="url(#clip0_174_49)">
<path d="M8.9929 20.0002C6.43552 20.0002 3.86878 20.0002 1.3114 20.0002C0.309058 20.0002 -0.0656488 19.6255 -7.50767e-05 18.6325C0.215382 15.7473 1.71421 13.6676 4.16854 12.2531C8.20601 9.92993 13.5456 10.8854 16.3465 14.4077C17.3582 15.6817 17.9109 17.1243 17.9765 18.7543C18.0046 19.5974 17.6205 19.9908 16.7681 19.9908C14.1826 20.0002 11.5877 20.0002 8.9929 20.0002ZM15.8219 17.958C15.569 15.766 12.918 12.7964 8.52452 13.0025C5.37697 13.1524 2.11702 15.691 2.17323 17.958C6.71655 17.958 11.2505 17.958 15.8219 17.958Z" fill="white"/>
<path d="M13.9764 5.04895C13.9576 7.81242 11.7094 10.0232 8.93654 9.99509C6.18245 9.96699 3.97167 7.70938 3.99978 4.92717C4.02788 2.20118 6.29486 -0.0283285 9.02085 -0.000225482C11.7937 0.0278776 13.9951 2.27612 13.9764 5.04895ZM9.00212 2.01383C7.36277 2.00446 6.01383 3.3253 5.99509 4.95528C5.97636 6.63209 7.34404 8.00914 9.00212 7.99977C10.6321 7.99041 11.9717 6.65083 11.981 5.02085C11.9998 3.36277 10.6696 2.02319 9.00212 2.01383Z" fill="white"/>
</g>
<defs>
<clipPath id="clip0_174_49">
<rect width="17.9766" height="20" fill="white"/>
</clipPath>
</defs>
</svg>
