<svg width="17" height="20" viewBox="0 0 17 20" fill="none" xmlns="http://www.w3.org/2000/svg">
<path d="M13.8117 1.77167L8.59583 0.0425C8.42667 -0.0141667 8.24083 -0.0141667 8.07167 0.0425L2.85583 1.77167C1.1475 2.33833 0 3.9275 0 5.72667V10.0358C0 15.505 5.8375 18.85 7.62667 19.7442C7.62667 19.7442 7.985 20 8.335 20C8.685 20 8.99417 19.8 8.99417 19.8C10.7942 19.0758 16.6667 16.2325 16.6667 10.0358V5.72667C16.6667 3.9275 15.52 2.33833 13.8117 1.77167ZM15.0008 10.0358C15.0008 15.1875 9.9275 17.6283 8.37333 18.2533C6.79917 17.4667 1.6675 14.55 1.6675 10.0358V5.72667C1.6675 4.6475 2.35583 3.69417 3.38083 3.35333L8.33417 1.71083L13.2875 3.35333C14.3117 3.69333 15.0008 4.6475 15.0008 5.72667V10.0358ZM10.4175 7.91667C10.4175 8.77083 9.90333 9.505 9.1675 9.82583V12.5C9.1675 12.9608 8.795 13.3333 8.33417 13.3333C7.87333 13.3333 7.50083 12.9608 7.50083 12.5V9.82583C6.765 9.50417 6.25083 8.77083 6.25083 7.91667C6.25083 6.76583 7.18333 5.83333 8.33417 5.83333C9.485 5.83333 10.4175 6.76583 10.4175 7.91667Z" fill="#8231D3"/>
</svg>
