<svg width="40" height="40" viewBox="0 0 40 40" fill="none" xmlns="http://www.w3.org/2000/svg">
<circle cx="20" cy="20" r="19.5" stroke="#D9D9D9"/>
<path d="M10 15.0387C10.0333 14.9304 10.075 14.7389 10.1666 14.5723C11.0661 13.0064 12.1822 11.6155 13.5731 10.4578C14.4144 9.75811 15.0974 9.85806 15.697 10.7743C16.455 11.932 17.1629 13.1314 17.8792 14.3141C18.0042 14.514 18.0708 14.7472 18.1708 14.9554C18.4623 15.5967 18.3124 16.1465 17.796 16.6046C17.4711 16.8877 17.1546 17.1793 16.8215 17.4541C16.6299 17.604 16.5799 17.7373 16.6715 17.9788C17.6793 20.5275 19.4618 22.3099 22.0104 23.3261C22.2603 23.426 22.4102 23.376 22.5685 23.1678C22.8183 22.8513 23.0849 22.5515 23.3597 22.2516C23.9428 21.6353 24.3259 21.527 25.1005 21.8602C25.7335 22.135 26.3498 22.4599 26.9495 22.8097C27.7325 23.2761 28.4987 23.7842 29.2483 24.3089C30.1312 24.9169 30.2395 25.5916 29.5565 26.4078C28.4071 27.7987 27.0078 28.9065 25.4503 29.8227C24.9922 30.0976 24.5258 29.9476 24.076 29.856C22.1437 29.4645 20.4029 28.615 18.7954 27.4989C15.3389 25.1251 12.607 22.1184 10.8829 18.262C10.4248 17.2792 10.1249 16.2298 10 15.0387ZM14.5393 11.3406C13.29 12.4567 12.2988 13.6311 11.4659 14.9304C11.3909 15.0554 11.366 15.2553 11.3993 15.3969C11.6075 16.1548 11.7657 16.946 12.0739 17.6623C13.6731 21.3521 16.2884 24.184 19.5617 26.4328C21.0942 27.4822 22.7434 28.2902 24.6008 28.6067C24.7423 28.6316 24.9256 28.6316 25.0339 28.565C26.3582 27.7155 27.5492 26.7076 28.5903 25.5416C28.557 25.4916 28.5487 25.4583 28.532 25.4416C27.241 24.667 25.9501 23.8841 24.6424 23.1262C24.5591 23.0762 24.3342 23.1678 24.2426 23.2594C23.8345 23.6759 23.4513 24.1173 23.0765 24.5588C22.835 24.8336 22.5685 24.8753 22.2187 24.7836C20.6944 24.3589 19.3618 23.5759 18.1957 22.5182C16.7632 21.2105 15.7387 19.6363 15.2056 17.754C15.114 17.4458 15.139 17.1876 15.3972 16.9627C15.7137 16.6878 15.9969 16.388 16.3217 16.1215C16.9964 15.5551 16.9964 15.5634 16.6132 14.7888C16.4966 14.5556 16.38 14.3141 16.2468 14.0892C15.6887 13.1897 15.1307 12.2901 14.5393 11.3406Z" fill="#606060"/>
</svg>
