<svg width="12" height="12" viewBox="0 0 12 12" fill="none" xmlns="http://www.w3.org/2000/svg">
<path d="M1 2.11111C1 1.81643 1.11706 1.53381 1.32544 1.32544C1.53381 1.11706 1.81643 1 2.11111 1H3.93333C4.04989 1.00009 4.16346 1.03683 4.25798 1.10503C4.35249 1.17322 4.42317 1.26942 4.46 1.38L5.29222 3.87611C5.33439 4.00297 5.3294 4.14077 5.27818 4.26425C5.22695 4.38772 5.13292 4.48859 5.01333 4.54833L3.75944 5.17611C4.37407 6.53641 5.46359 7.62593 6.82389 8.24056L7.45167 6.98667C7.51141 6.86708 7.61228 6.77305 7.73575 6.72182C7.85923 6.6706 7.99703 6.66561 8.12389 6.70778L10.62 7.54C10.7307 7.57686 10.8269 7.64762 10.8951 7.74225C10.9633 7.83688 11 7.95058 11 8.06722V9.88889C11 10.1836 10.8829 10.4662 10.6746 10.6746C10.4662 10.8829 10.1836 11 9.88889 11H9.33333C4.73111 11 1 7.26889 1 2.66667V2.11111Z" stroke="#8231D3" stroke-linecap="round" stroke-linejoin="round"/>
</svg>
