<svg width="24" height="24" viewBox="0 0 24 24" fill="none" xmlns="http://www.w3.org/2000/svg">
<path d="M17.6343 23.9998C16.4508 23.6318 15.2373 23.3632 14.1035 22.8957C9.98577 21.1751 6.7135 18.3504 3.96837 14.8692C2.23774 12.6711 0.904962 10.2841 0.168949 7.55881C-0.139381 6.40506 -0.0697583 5.38061 0.725932 4.45562C1.70065 3.31182 2.66543 2.14812 3.65009 1.01426C3.85896 0.765611 4.15734 0.586581 4.41594 0.377712C5.26136 -0.298624 6.067 0.04949 6.51458 0.646258C7.728 2.26748 8.85191 3.96826 9.6476 5.85803C10.0355 6.78302 9.91615 7.24054 9.17019 7.93677C8.79224 8.28488 8.38445 8.59321 8.01644 8.96122C7.90703 9.07063 7.83741 9.31928 7.88714 9.44858C9.07073 12.5717 11.229 14.73 14.3422 15.9036C14.4814 15.9533 14.75 15.8638 14.8693 15.7544C15.2075 15.4163 15.4959 15.0284 15.8241 14.6802C16.5701 13.8746 17.0475 13.7055 18.0222 14.2128C19.5042 14.9786 20.9265 15.8638 22.3588 16.7092C22.6472 16.8783 22.9157 17.0773 23.1644 17.2861C23.8805 17.9028 24.0098 18.6388 23.4329 19.3848C22.0206 21.195 20.2402 22.5974 18.251 23.7312C18.0819 23.8207 17.883 23.8506 17.694 23.9003C17.6741 23.9301 17.6542 23.9699 17.6343 23.9998ZM22.1598 18.5194C20.6381 17.3657 19.0467 16.4308 17.3559 15.655C17.2564 15.6052 17.0276 15.7345 16.9182 15.8439C16.4309 16.3611 15.9534 16.8883 15.486 17.4254C15.2174 17.7238 14.9091 17.7934 14.551 17.6541C13.7653 17.3458 12.9497 17.0971 12.2137 16.6993C9.19008 15.0582 7.15113 12.6015 6.14657 9.29939C6.02722 8.89159 6.067 8.56337 6.40517 8.27493C6.90247 7.83731 7.37989 7.36984 7.88714 6.96205C8.19547 6.71339 8.22531 6.49458 8.02639 6.16636C7.71806 5.63921 7.47935 5.07228 7.16107 4.54514C6.59414 3.57042 5.96754 2.61559 5.36083 1.65082C4.35627 2.36694 2.01893 5.07228 1.61114 5.97738C1.55146 6.09673 1.54151 6.27576 1.5813 6.40506C1.8399 7.33005 2.02887 8.28488 2.40683 9.15019C4.37616 13.6757 7.60865 17.1369 11.6866 19.8423C13.4172 20.996 15.2871 21.8713 17.3658 22.2194C17.5448 22.2492 17.7736 22.2293 17.9228 22.1398C19.4744 21.1353 20.8768 19.9517 22.1598 18.5194Z" fill="#8231D3"/>
</svg>
