<svg width="10" height="8" viewBox="0 0 10 8" fill="none" xmlns="http://www.w3.org/2000/svg">
<path id="Vector" d="M10 3.75095C10 3.98095 9.81375 4.16762 9.58333 4.16762H8.55583C8.3675 4.16762 8.20208 4.2947 8.15333 4.47595L7.45458 7.07678C7.375 7.3372 7.1525 7.50095 6.89583 7.50095H6.88875C6.62917 7.49803 6.4075 7.32803 6.33708 7.07845L4.97292 1.56762L3.64875 6.25053C3.56917 6.49928 3.36125 6.6572 3.11542 6.66678C2.86042 6.68053 2.64917 6.53553 2.555 6.30762L1.88833 4.44345C1.82875 4.27845 1.67125 4.1672 1.49583 4.1672H0.416667C0.18625 4.1672 0 3.98053 0 3.75053C0 3.52053 0.18625 3.33387 0.416667 3.33387H1.49625C2.02292 3.33387 2.49542 3.66678 2.67333 4.16262L3.06417 5.25678L4.4325 0.4172C4.51625 0.156784 4.73542 -0.0107163 4.99958 0.000533737C5.25708 0.00511707 5.47708 0.1747 5.5475 0.4222L6.90542 5.90803L7.34792 4.2597C7.49417 3.7147 7.99042 3.33387 8.555 3.33387H9.5825C9.81292 3.33387 9.99917 3.52053 9.99917 3.75053L10 3.75095Z" fill="#797979"/>
</svg>
