<svg width="40" height="40" viewBox="0 0 40 40" fill="none" xmlns="http://www.w3.org/2000/svg">
<path d="M18.2317 25.1017C18.4638 25.334 18.7395 25.5183 19.0429 25.644C19.3463 25.7697 19.6716 25.8345 20 25.8345C20.3284 25.8345 20.6537 25.7697 20.9571 25.644C21.2605 25.5183 21.5362 25.334 21.7683 25.1017L24.4442 22.4258C24.5876 22.2672 24.6646 22.0594 24.6591 21.8455C24.6536 21.6317 24.5661 21.4282 24.4147 21.2771C24.2632 21.126 24.0595 21.0389 23.8457 21.0338C23.6318 21.0288 23.4242 21.1062 23.2658 21.25L20.8275 23.6892L20.8333 10.8333C20.8333 10.6123 20.7455 10.4004 20.5893 10.2441C20.433 10.0878 20.221 10 20 10C19.779 10 19.567 10.0878 19.4107 10.2441C19.2545 10.4004 19.1667 10.6123 19.1667 10.8333L19.1592 23.6733L16.7342 21.25C16.5778 21.0937 16.3658 21.006 16.1447 21.0061C15.9236 21.0062 15.7117 21.094 15.5554 21.2504C15.3992 21.4068 15.3114 21.6188 15.3115 21.8399C15.3116 22.0609 15.3995 22.2729 15.5558 22.4292L18.2317 25.1017Z" fill="#606060"/>
<path d="M29.1667 23.3335C28.9457 23.3335 28.7337 23.4213 28.5774 23.5776C28.4211 23.7339 28.3333 23.9458 28.3333 24.1668V27.5002C28.3333 27.7212 28.2455 27.9331 28.0893 28.0894C27.933 28.2457 27.721 28.3335 27.5 28.3335H12.5C12.279 28.3335 12.067 28.2457 11.9107 28.0894C11.7545 27.9331 11.6667 27.7212 11.6667 27.5002V24.1668C11.6667 23.9458 11.5789 23.7339 11.4226 23.5776C11.2663 23.4213 11.0543 23.3335 10.8333 23.3335C10.6123 23.3335 10.4004 23.4213 10.2441 23.5776C10.0878 23.7339 10 23.9458 10 24.1668V27.5002C10 28.1632 10.2634 28.7991 10.7322 29.2679C11.2011 29.7368 11.837 30.0002 12.5 30.0002H27.5C28.163 30.0002 28.7989 29.7368 29.2678 29.2679C29.7366 28.7991 30 28.1632 30 27.5002V24.1668C30 23.9458 29.9122 23.7339 29.7559 23.5776C29.5996 23.4213 29.3877 23.3335 29.1667 23.3335Z" fill="#606060"/>
<circle cx="20" cy="20" r="19.5" stroke="#D9D9D9"/>
</svg>
