<svg width="15" height="15" viewBox="0 0 15 15" fill="none" xmlns="http://www.w3.org/2000/svg">
<path d="M14.7982 13.7332L12.0157 10.9732C13.0957 9.62648 13.6188 7.91715 13.4773 6.19665C13.3358 4.47615 12.5404 2.87526 11.2548 1.72316C9.9692 0.571055 8.29103 -0.0446921 6.56537 0.00252822C4.8397 0.0497485 3.19772 0.756347 1.97703 1.97703C0.756347 3.19772 0.0497485 4.8397 0.00252822 6.56537C-0.0446921 8.29103 0.571055 9.9692 1.72316 11.2548C2.87526 12.5404 4.47615 13.3358 6.19665 13.4773C7.91715 13.6188 9.62648 13.0957 10.9732 12.0157L13.7332 14.7757C13.8029 14.846 13.8858 14.9018 13.9772 14.9398C14.0686 14.9779 14.1667 14.9975 14.2657 14.9975C14.3647 14.9975 14.4627 14.9779 14.5541 14.9398C14.6455 14.9018 14.7285 14.846 14.7982 14.7757C14.9334 14.6358 15.0089 14.4489 15.0089 14.2544C15.0089 14.0599 14.9334 13.873 14.7982 13.7332ZM6.76568 12.0157C5.72732 12.0157 4.71229 11.7078 3.84893 11.1309C2.98557 10.554 2.31267 9.73408 1.91531 8.77476C1.51795 7.81545 1.41398 6.75985 1.61655 5.74145C1.81912 4.72305 2.31914 3.78759 3.05336 3.05336C3.78759 2.31914 4.72305 1.81912 5.74145 1.61655C6.75985 1.41398 7.81545 1.51795 8.77476 1.91531C9.73408 2.31267 10.554 2.98557 11.1309 3.84893C11.7078 4.71229 12.0157 5.72732 12.0157 6.76568C12.0157 8.15806 11.4626 9.49342 10.478 10.478C9.49342 11.4626 8.15806 12.0157 6.76568 12.0157Z" fill="#8231D3"/>
</svg>
