<svg width="18" height="18" viewBox="0 0 18 18" fill="none" xmlns="http://www.w3.org/2000/svg">
<path d="M14.25 1.5H13.5V0.75C13.5 0.336 13.164 0 12.75 0C12.336 0 12 0.336 12 0.75V1.5H6V0.75C6 0.336 5.664 0 5.25 0C4.836 0 4.5 0.336 4.5 0.75V1.5H3.75C1.68225 1.5 0 3.18225 0 5.25V14.25C0 16.3177 1.68225 18 3.75 18H6.75C7.164 18 7.5 17.664 7.5 17.25C7.5 16.836 7.164 16.5 6.75 16.5H3.75C2.5095 16.5 1.5 15.4905 1.5 14.25V7.5H17.25C17.664 7.5 18 7.164 18 6.75V5.25C18 3.18225 16.3177 1.5 14.25 1.5ZM16.5 6H1.5V5.25C1.5 4.0095 2.5095 3 3.75 3H14.25C15.4905 3 16.5 4.0095 16.5 5.25V6ZM14.1593 9.65925L9.879 13.9395C9.31275 14.5058 9 15.2595 9 16.0613V17.2507C9 17.6647 9.336 18.0007 9.75 18.0007H10.9395C11.7413 18.0007 12.4942 17.688 13.0605 17.1217L17.3407 12.8415C17.766 12.4163 18 11.8515 18 11.25C18 10.6485 17.766 10.0837 17.3415 9.65925C16.491 8.80875 15.009 8.80875 14.1593 9.65925ZM16.2803 11.7802L11.9992 16.0605C11.7165 16.344 11.34 16.5 10.9388 16.5H10.4992V16.0605C10.4992 15.66 10.6552 15.2835 10.9388 15L15.2197 10.7198C15.5025 10.4362 15.9968 10.4362 16.2803 10.7198C16.422 10.8608 16.5 11.049 16.5 11.25C16.5 11.451 16.422 11.6385 16.2803 11.7802ZM3.75 10.5C3.75 10.086 4.086 9.75 4.5 9.75H9.75C10.164 9.75 10.5 10.086 10.5 10.5C10.5 10.914 10.164 11.25 9.75 11.25H4.5C4.086 11.25 3.75 10.914 3.75 10.5ZM8.25 13.5C8.25 13.914 7.914 14.25 7.5 14.25H4.5C4.086 14.25 3.75 13.914 3.75 13.5C3.75 13.086 4.086 12.75 4.5 12.75H7.5C7.914 12.75 8.25 13.086 8.25 13.5Z" fill="#606060"/>
</svg>
