<svg width="20" height="23" viewBox="0 0 20 23" fill="none" xmlns="http://www.w3.org/2000/svg">
<path d="M11.3952 7.14456L9.52245 15.572C9.47563 15.7873 9.27899 15.9371 9.06362 15.9371C9.02617 15.9371 8.99808 15.9371 8.96062 15.9278C8.7078 15.8716 8.54862 15.6188 8.6048 15.366L10.4776 6.93856C10.5337 6.68573 10.7866 6.52655 11.0394 6.58273C11.2922 6.63891 11.4514 6.89174 11.3952 7.14456ZM7.11596 9.30759C7.30323 9.12031 7.30323 8.83004 7.11596 8.64276C6.92868 8.45549 6.63841 8.45549 6.45113 8.64276L4.78438 10.3095C4.24128 10.8526 4.24128 11.7328 4.78438 12.2759L6.40431 13.8958C6.49795 13.9895 6.61968 14.0363 6.73204 14.0363C6.84441 14.0363 6.9755 13.9895 7.05978 13.8958C7.24705 13.7086 7.24705 13.4183 7.05978 13.231L5.43984 11.6111C5.26193 11.4332 5.26193 11.1429 5.43984 10.965L7.10659 9.29823L7.11596 9.30759ZM13.5489 8.64276C13.3616 8.45549 13.0713 8.45549 12.884 8.64276C12.6968 8.83004 12.6968 9.12031 12.884 9.30759L14.5508 10.9743C14.7287 11.1523 14.7287 11.4425 14.5508 11.6204L12.9309 13.2404C12.7436 13.4276 12.7436 13.7179 12.9309 13.9052C13.0245 13.9988 13.1462 14.0457 13.2586 14.0457C13.371 14.0457 13.5021 13.9988 13.5863 13.9052L15.2063 12.2853C15.7494 11.7422 15.7494 10.862 15.2063 10.3189L13.5395 8.65213L13.5489 8.64276ZM19.5885 17.1263C19.1952 17.7631 18.5772 18.2125 17.8468 18.3904C17.1165 18.5684 16.3674 18.4466 15.7213 18.0534L15.3093 17.8005C14.5602 18.4092 13.7174 18.8774 12.8091 19.2051V19.6826C12.8091 21.2277 11.545 22.4918 10 22.4918C8.45498 22.4918 7.19087 21.2277 7.19087 19.6826V19.2051C6.28258 18.8867 5.43984 18.4185 4.69074 17.8005L4.27874 18.0534C3.642 18.4466 2.88353 18.5684 2.15316 18.3904C1.42278 18.2125 0.804776 17.7631 0.411497 17.1263C-0.393787 15.806 0.018219 14.0738 1.33851 13.2591L1.75052 13.0063C1.62879 12.4351 1.56324 11.8452 1.56324 11.2459C1.56324 10.6466 1.62879 10.0661 1.75052 9.4855L1.33851 9.23268C0.018219 8.4274 -0.393787 6.6951 0.411497 5.36544C0.804776 4.7287 1.42278 4.27924 2.15316 4.10133C2.88353 3.92342 3.63263 4.04515 4.27874 4.43843L4.69074 4.69125C5.43984 4.0826 6.28258 3.61442 7.19087 3.28668V2.80913C7.19087 1.26411 8.45498 0 10 0C11.545 0 12.8091 1.26411 12.8091 2.80913V3.28668C13.7174 3.60505 14.5602 4.07324 15.3093 4.69125L15.7213 4.43843C16.358 4.04515 17.1165 3.93278 17.8468 4.10133C18.5772 4.27924 19.1952 4.7287 19.5885 5.36544C20.3938 6.68573 19.9818 8.41803 18.6615 9.23268L18.2495 9.4855C18.3712 10.0567 18.4368 10.6466 18.4368 11.2459C18.4368 11.8452 18.3712 12.4257 18.2495 13.0063L18.6615 13.2591C19.9818 14.0644 20.3938 15.7967 19.5885 17.1263ZM18.1746 14.0644L17.4723 13.6337C17.2944 13.5307 17.2101 13.3153 17.2663 13.1186C17.4255 12.51 17.5004 11.8826 17.5004 11.2553C17.5004 10.6279 17.4255 10.0005 17.2663 9.39186C17.2195 9.19522 17.3037 8.97986 17.4723 8.87686L18.1746 8.44612C19.0548 7.90302 19.3357 6.75128 18.7926 5.87109C18.2495 4.99089 17.0977 4.70998 16.2175 5.25308L15.5153 5.68381C15.3373 5.78681 15.1126 5.76808 14.9628 5.63699C14.1575 4.92534 13.2305 4.41034 12.2099 4.09197C12.0132 4.03579 11.8821 3.84851 11.8821 3.64251V2.82786C11.8821 1.79784 11.0394 0.955105 10.0094 0.955105C8.97935 0.955105 8.13661 1.79784 8.13661 2.82786V3.64251C8.13661 3.84851 8.00552 4.02642 7.80888 4.09197C6.78823 4.40097 5.86121 4.92534 5.05593 5.63699C4.90611 5.77745 4.68138 5.79618 4.50347 5.68381L3.80118 5.25308C2.92099 4.70998 1.76924 4.99089 1.22615 5.87109C0.683047 6.75128 0.96396 7.90302 1.84415 8.44612L2.54644 8.87686C2.72435 8.97986 2.80862 9.19522 2.75244 9.39186C2.59326 10.0005 2.51835 10.6279 2.51835 11.2553C2.51835 11.8826 2.59326 12.51 2.75244 13.1186C2.79926 13.3153 2.71499 13.5307 2.54644 13.6337L1.84415 14.0644C0.96396 14.6075 0.683047 15.7592 1.22615 16.6394C1.76924 17.5196 2.92099 17.8005 3.80118 17.2574L4.50347 16.8267C4.57838 16.7799 4.66265 16.7612 4.74692 16.7612C4.85929 16.7612 4.97165 16.7986 5.05593 16.8735C5.86121 17.5852 6.78823 18.1002 7.80888 18.4185C8.00552 18.4747 8.13661 18.662 8.13661 18.868V19.6826C8.13661 20.7127 8.97935 21.5554 10.0094 21.5554C11.0394 21.5554 11.8821 20.7127 11.8821 19.6826V18.868C11.8821 18.662 12.0132 18.4841 12.2099 18.4185C13.2305 18.1095 14.1575 17.5852 14.9628 16.8735C15.122 16.7331 15.3467 16.7143 15.5153 16.8267L16.2175 17.2574C17.0977 17.8005 18.2495 17.5196 18.7926 16.6394C19.3357 15.7592 19.0548 14.6075 18.1746 14.0644Z" fill="white"/>
</svg>
