<svg width="10" height="10" viewBox="0 0 10 10" fill="none" xmlns="http://www.w3.org/2000/svg">
<path d="M9.16706 8.03284V9.58332C9.16706 9.81333 8.9808 10 8.75037 10C8.51995 10 8.33369 9.81333 8.33369 9.58332V8.03284C8.33369 7.43906 7.91075 6.92362 7.32865 6.80695L4.50186 6.24151C4.30727 6.20276 4.16685 6.0315 4.16685 5.83316V2.96096C4.16685 2.73678 4.01601 2.53677 3.8235 2.50594C3.69599 2.4851 3.57516 2.51844 3.48057 2.59886C3.38723 2.67803 3.33348 2.79387 3.33348 2.91637V8.59911C3.33348 8.75912 3.24181 8.90495 3.09764 8.97454C2.9543 9.04413 2.78262 9.02538 2.6572 8.92496L1.55841 8.04992C1.36548 7.87158 1.10214 7.88075 0.94588 8.04825C0.789207 8.21618 0.797957 8.48119 0.965464 8.63869L1.53924 9.19205C1.70466 9.35164 1.70966 9.6154 1.54966 9.78124C1.39007 9.94666 1.1263 9.95125 0.960464 9.79166L0.390857 9.24247C-0.10708 8.77537 -0.133748 7.98283 0.336688 7.47948C0.807124 6.97696 1.59882 6.94987 2.10218 7.41948L2.50011 7.73574V2.91637C2.50011 2.54927 2.66053 2.20218 2.94055 1.96383C3.22014 1.72549 3.59099 1.62298 3.95684 1.68299C4.55145 1.77924 4.9998 2.32885 4.9998 2.96054V5.49106L7.49157 5.98942C8.46203 6.18359 9.16664 7.04279 9.16664 8.03242L9.16706 8.03284ZM1.47674 4.37477C1.53507 4.37477 1.59382 4.36268 1.65049 4.33685C1.85967 4.24101 1.95134 3.9935 1.8555 3.78432C1.73008 3.5114 1.66674 3.2193 1.66674 2.91637C1.66674 1.76757 2.60137 0.832951 3.75016 0.832951C4.89896 0.832951 5.83358 1.76757 5.83358 2.91637C5.83358 3.22013 5.77025 3.51181 5.64524 3.78432C5.54899 3.9935 5.64066 4.24101 5.84942 4.33685C6.05984 4.4331 6.30652 4.34143 6.40194 4.13226C6.57778 3.75016 6.66695 3.34097 6.66695 2.91679C6.66695 1.30839 5.35856 0 3.75016 0C2.14176 0 0.833375 1.30797 0.833375 2.91637C0.833375 3.34014 0.922546 3.74891 1.09797 4.13184C1.16797 4.28476 1.31923 4.37477 1.47715 4.37477H1.47674Z" fill="#797979"/>
</svg>
