<svg width="40" height="40" viewBox="0 0 40 40" fill="none" xmlns="http://www.w3.org/2000/svg">
<circle cx="20" cy="20" r="20" fill="black"/>
<path d="M29 29.9609C28.9924 29.9687 29.0151 29.9922 28.9849 29.9922C28.9697 29.9922 28.947 29.9922 28.9318 29.9922C27.1674 29.9922 25.403 29.9922 23.6462 29.9922C23.631 29.9687 23.6235 29.9374 23.6083 29.914C23.0404 29.0617 22.48 28.2095 21.9121 27.365C20.8746 25.8012 19.8372 24.2453 18.7922 22.6815C18.777 22.658 18.7619 22.6424 18.7467 22.6189C18.724 22.6424 18.7089 22.658 18.6937 22.6815C18.5801 22.8144 18.4666 22.9551 18.353 23.0881C16.4523 25.3712 14.5515 27.6465 12.6508 29.9296C12.6357 29.9453 12.6205 29.9687 12.613 29.9922C12.0905 29.9922 11.5755 29.9922 11.053 29.9922C11.0379 29.9922 11.0151 30.0078 11.0076 29.9765C11.0227 29.9609 11.0454 29.9453 11.0606 29.9296C11.2499 29.7107 11.4316 29.484 11.621 29.265C13.7261 26.7395 15.8389 24.2062 17.944 21.6807C17.9743 21.6416 18.0122 21.6025 18.0425 21.5556C18.0273 21.5321 18.0122 21.5086 17.9971 21.4852C17.7169 21.063 17.4367 20.6407 17.1489 20.2185C15.3088 17.4506 13.4611 14.6827 11.621 11.9148C11.4316 11.6333 11.2423 11.3519 11.053 11.0704C11.0454 11.0469 11.0379 11.0156 11 11.0156C11 11.0078 11.0076 11 11.0076 11C11.0303 11 11.0454 11 11.0682 11C12.8326 11 14.6045 11 16.369 11C16.8687 11.7506 17.3685 12.4934 17.8607 13.244C18.8982 14.8 19.9356 16.3638 20.9731 17.9198C20.9882 17.9354 21.0034 17.951 21.0185 17.9745C21.0412 17.9432 21.0639 17.9276 21.0791 17.9041C21.6546 17.216 22.2301 16.528 22.7981 15.8399C24.1233 14.2449 25.456 12.6498 26.7812 11.0547C26.7964 11.0391 26.804 11.0156 26.8191 11C27.3492 11 27.8793 11 28.4093 11C28.3942 11.0235 28.3866 11.0469 28.3639 11.0626C27.7808 11.7663 27.1977 12.4621 26.6146 13.1658C25.0244 15.0737 23.4342 16.9815 21.8439 18.8815C21.7985 18.9362 21.7606 18.9909 21.7152 19.0379C21.7303 19.0691 21.7455 19.0926 21.7606 19.116C22.4649 20.1794 23.1767 21.235 23.8809 22.2984C25.4257 24.6206 26.9781 26.9428 28.5229 29.265C28.6895 29.4996 28.8485 29.7342 29 29.9609ZM26.8342 28.8115C26.804 28.7646 26.7888 28.7412 26.7661 28.7099C25.244 26.4658 23.7219 24.2218 22.2074 21.9778C20.0265 18.7486 17.8456 15.535 15.6647 12.3136C15.6268 12.2588 15.589 12.2354 15.5208 12.2354C14.7711 12.2354 14.029 12.2354 13.2793 12.2354C13.2491 12.2354 13.2188 12.2354 13.1733 12.2354C13.2036 12.2823 13.2263 12.3136 13.2415 12.3449C16.9445 17.8103 20.6475 23.2757 24.3504 28.7412C24.3807 28.7881 24.4186 28.8115 24.4792 28.8115C25.2364 28.8115 25.9861 28.8115 26.7434 28.8115C26.7661 28.8115 26.7964 28.8115 26.8342 28.8115Z" fill="white"/>
</svg>
