<svg width="20" height="20" viewBox="0 0 20 20" fill="none" xmlns="http://www.w3.org/2000/svg">
<path d="M10.8275 2.1486L10.8333 15.0134C10.8333 15.2344 10.7455 15.4464 10.5892 15.6027C10.4329 15.7589 10.221 15.8467 9.99995 15.8467C9.77894 15.8467 9.56698 15.7589 9.4107 15.6027C9.25442 15.4464 9.16662 15.2344 9.16662 15.0134L9.16079 2.16277L6.73412 4.59023C6.57785 4.74646 6.36593 4.83422 6.14496 4.83422C5.92399 4.83422 5.71206 4.74646 5.55579 4.59023C5.39956 4.43396 5.3118 4.22204 5.3118 4.00107C5.3118 3.78011 5.39956 3.56819 5.55579 3.41192L8.23162 0.732789C8.46379 0.500476 8.73946 0.316187 9.04288 0.190452C9.34629 0.0647166 9.67152 0 9.99995 0C10.3284 0 10.6536 0.0647166 10.957 0.190452C11.2605 0.316187 11.5361 0.500476 11.7683 0.732789L14.4441 3.40942C14.6003 3.56569 14.6881 3.77761 14.6881 3.99857C14.6881 4.21954 14.6003 4.43146 14.4441 4.58773C14.2878 4.74396 14.0759 4.83172 13.855 4.83172C13.634 4.83172 13.4221 4.74396 13.2658 4.58773L10.8275 2.1486Z" fill="#8231D3"/>
<path d="M1.66667 14.1668V17.5001C1.66667 17.7211 1.75446 17.9331 1.91074 18.0893C2.06702 18.2456 2.27899 18.3334 2.5 18.3334H17.5C17.721 18.3334 17.933 18.2456 18.0893 18.0893C18.2455 17.9331 18.3333 17.7211 18.3333 17.5001V14.1668C18.3333 13.9458 18.4211 13.7338 18.5774 13.5776C18.7337 13.4213 18.9457 13.3335 19.1667 13.3335C19.3877 13.3335 19.5996 13.4213 19.7559 13.5776C19.9122 13.7338 20 13.9458 20 14.1668V17.5001C20 18.1631 19.7366 18.799 19.2678 19.2678C18.7989 19.7367 18.163 20.0001 17.5 20.0001H2.5C1.83696 20.0001 1.20107 19.7367 0.732233 19.2678C0.263391 18.799 0 18.1631 0 17.5001V14.1668C0 13.9458 0.0877972 13.7338 0.244078 13.5776C0.400358 13.4213 0.61232 13.3335 0.833334 13.3335C1.05435 13.3335 1.26631 13.4213 1.42259 13.5776C1.57887 13.7338 1.66667 13.9458 1.66667 14.1668Z" fill="#8231D3"/>
</svg>
